<?xml version="1.0" encoding="UTF-8"?>
<svg width="800" height="600" viewBox="0 0 800 600" xmlns="http://www.w3.org/2000/svg">
  <defs>
    <linearGradient id="grad1" x1="0%" y1="0%" x2="100%" y2="100%">
      <stop offset="0%" style="stop-color:#4F46E5;stop-opacity:1" />
      <stop offset="100%" style="stop-color:#06B6D4;stop-opacity:1" />
    </linearGradient>
    <linearGradient id="grad2" x1="0%" y1="0%" x2="100%" y2="0%">
      <stop offset="0%" style="stop-color:#3B82F6;stop-opacity:1" />
      <stop offset="100%" style="stop-color:#8B5CF6;stop-opacity:1" />
    </linearGradient>
  </defs>

  <!-- Background -->
  <rect width="100%" height="100%" fill="#f8fafc"/>

  <!-- Office Building Structure -->
  <rect x="100" y="100" width="600" height="400" fill="#ffffff" stroke="#e2e8f0" stroke-width="2"/>
  
  <!-- Windows -->
  <g id="windows">
    <rect x="150" y="150" width="100" height="80" fill="url(#grad1)" opacity="0.1"/>
    <rect x="300" y="150" width="100" height="80" fill="url(#grad2)" opacity="0.1"/>
    <rect x="450" y="150" width="100" height="80" fill="url(#grad1)" opacity="0.1"/>
    
    <rect x="150" y="280" width="100" height="80" fill="url(#grad2)" opacity="0.1"/>
    <rect x="300" y="280" width="100" height="80" fill="url(#grad1)" opacity="0.1"/>
    <rect x="450" y="280" width="100" height="80" fill="url(#grad2)" opacity="0.1"/>
  </g>

  <!-- Technology Elements -->
  <g transform="translate(200,200)">
    <!-- Circuit Board Pattern -->
    <path d="M0 0 L400 0 M0 100 L400 100 M0 200 L400 200" 
          stroke="#4F46E5" stroke-width="1" opacity="0.2"/>
    <path d="M100 0 L100 300 M200 0 L200 300 M300 0 L300 300" 
          stroke="#4F46E5" stroke-width="1" opacity="0.2"/>
  </g>

  <!-- Abstract Shapes -->
  <circle cx="400" cy="300" r="150" fill="url(#grad1)" opacity="0.05"/>
  <circle cx="400" cy="300" r="100" fill="url(#grad2)" opacity="0.05"/>
</svg>
