<?xml version="1.0" standalone="no"?>
<!DOCTYPE svg PUBLIC "-//W3C//DTD SVG 20010904//EN"
 "http://www.w3.org/TR/2001/REC-SVG-20010904/DTD/svg10.dtd">
<svg version="1.0" xmlns="http://www.w3.org/2000/svg"
 width="1491.000000pt" height="909.000000pt" viewBox="0 0 1491.000000 909.000000"
 preserveAspectRatio="xMidYMid meet">

<g transform="translate(0.000000,909.000000) scale(0.100000,-0.100000)"
fill="#000000" stroke="none">
<path d="M0 4545 l0 -4545 7455 0 7455 0 0 4545 0 4545 -7455 0 -7455 0 0
-4545z m965 4224 c10 -15 -1 -23 -20 -15 -9 3 -13 10 -10 16 8 13 22 13 30 -1z
m655 -4 c0 -8 -7 -15 -15 -15 -8 0 -15 7 -15 15 0 8 7 15 15 15 8 0 15 -7 15
-15z m11330 -6 c-9 -16 -8 -26 5 -45 17 -27 27 -29 56 -14 16 9 19 7 19 -8 0
-11 -9 -31 -21 -46 -45 -58 -139 -19 -139 57 0 37 35 77 67 77 21 0 22 -2 13
-21z m-12174 -24 c9 -50 21 -52 29 -5 10 57 39 55 52 -2 10 -43 15 -40 27 15
4 15 13 27 21 27 18 0 18 3 -1 -75 -13 -50 -21 -65 -34 -65 -12 0 -21 10 -25
30 -9 43 -22 45 -29 5 -5 -25 -12 -35 -25 -35 -14 0 -22 15 -35 65 -19 78 -19
75 -1 75 8 0 17 -14 21 -35z m535 -20 c31 -82 32 -85 14 -85 -8 0 -18 7 -21
15 -4 9 -19 15 -35 15 -19 0 -29 -5 -29 -15 0 -8 -9 -15 -20 -15 -18 0 -18 2
5 65 14 36 25 68 25 71 0 3 9 4 21 2 15 -2 27 -18 40 -53z m139 -15 l0 -70
-45 0 c-40 0 -47 3 -56 28 -15 37 7 76 44 80 15 2 27 10 27 18 0 8 7 14 15 14
12 0 15 -14 15 -70z m679 8 c12 -34 21 -66 21 -70 0 -14 -28 -9 -34 7 -3 8
-17 15 -31 15 -14 0 -28 -7 -31 -15 -5 -13 -34 -22 -34 -12 0 7 39 118 45 127
3 6 15 10 25 10 13 0 24 -16 39 -62z m71 -8 c0 -56 -3 -70 -15 -70 -12 0 -15
14 -15 70 0 56 3 70 15 70 12 0 15 -14 15 -70z m11174 35 c6 -18 1 -19 -24 -5
-12 6 -21 6 -25 1 -3 -5 7 -16 22 -23 38 -18 38 -52 -1 -56 -16 -2 -33 1 -39
7 -16 16 0 26 17 12 15 -13 36 -7 36 10 0 5 -6 9 -13 9 -24 0 -51 26 -44 44 8
21 63 22 71 1z m36 -35 c0 -27 -4 -50 -10 -50 -5 0 -10 23 -10 50 0 28 5 50
10 50 6 0 10 -22 10 -50z m240 0 c0 -27 -4 -50 -10 -50 -5 0 -10 23 -10 50 0
28 5 50 10 50 6 0 10 -22 10 -50z m334 35 c6 -18 1 -19 -24 -5 -12 6 -21 6
-25 1 -3 -5 7 -16 22 -23 38 -18 38 -52 -1 -56 -16 -2 -33 1 -39 7 -16 16 0
26 17 12 15 -13 36 -7 36 10 0 5 -6 9 -13 9 -24 0 -51 26 -44 44 8 21 63 22
71 1z m36 -35 c0 -27 -4 -50 -10 -50 -5 0 -10 23 -10 50 0 28 5 50 10 50 6 0
10 -22 10 -50z m242 8 c2 -30 8 -43 18 -43 10 0 16 13 18 43 4 52 22 56 22 5
0 -51 -11 -65 -46 -61 -27 3 -29 6 -32 51 -2 26 1 47 7 47 5 0 11 -19 13 -42z
m-13292 -23 c0 -41 -4 -55 -14 -55 -10 0 -17 16 -21 44 -8 48 -2 66 21 66 10
0 14 -14 14 -55z m100 40 c17 -21 4 -32 -20 -17 -25 15 -33 15 -28 0 3 -7 15
-15 29 -18 17 -4 24 -13 24 -30 0 -21 -5 -25 -36 -28 -23 -2 -40 2 -49 13 -17
21 -4 32 20 17 23 -14 40 -16 40 -3 0 5 -13 11 -29 14 -54 11 -47 67 9 67 15
0 33 -7 40 -15z m112 -2 c10 -9 18 -24 18 -35 0 -14 -8 -18 -41 -18 -26 0 -38
-4 -34 -11 4 -6 19 -7 37 -4 23 6 29 4 26 -6 -7 -22 -70 -24 -85 -3 -41 56 28
124 79 77z m323 -13 c4 -16 10 -30 15 -30 5 0 11 14 15 30 4 17 13 30 21 30
18 0 18 -6 -2 -63 -11 -34 -21 -47 -35 -47 -10 0 -19 1 -19 3 0 1 -9 26 -20
55 -20 51 -20 52 -1 52 13 0 21 -9 26 -30z m115 -25 c0 -42 -3 -55 -15 -55
-12 0 -15 13 -15 55 0 42 3 55 15 55 12 0 15 -13 15 -55z m110 40 c18 -21 5
-30 -24 -17 -28 12 -36 7 -36 -24 0 -30 14 -38 39 -22 25 15 38 4 21 -17 -21
-25 -71 -15 -89 16 -13 24 -13 29 2 53 20 30 67 36 87 11z m108 3 c7 -7 12
-22 12 -35 0 -20 -5 -23 -36 -23 -22 0 -33 -4 -29 -11 4 -6 20 -7 38 -3 28 6
30 5 18 -10 -16 -19 -62 -21 -79 -4 -7 7 -12 26 -12 43 0 38 16 55 50 55 14 0
31 -5 38 -12z m112 -3 c17 -21 4 -32 -20 -17 -25 15 -33 15 -28 0 3 -7 15 -15
29 -18 17 -4 24 -13 24 -30 0 -22 -5 -25 -38 -28 -27 -2 -39 1 -43 13 -8 21 3
32 18 17 14 -14 38 -16 38 -3 0 5 -13 11 -30 15 -23 4 -30 11 -30 29 0 13 3
27 7 30 12 13 60 7 73 -8z m11548 -24 c7 -47 -6 -71 -39 -71 -23 0 -30 4 -26
15 4 8 2 17 -3 20 -14 9 -12 39 2 53 20 20 63 9 66 -17z m70 16 c14 -11 16
-67 2 -67 -5 0 -10 14 -10 31 0 38 -24 35 -28 -4 -5 -42 -22 -32 -22 12 0 35
3 40 23 39 12 -1 28 -6 35 -11z m162 -2 c6 -7 10 -24 8 -36 -4 -28 -31 -39
-28 -13 4 31 1 44 -10 44 -5 0 -10 -13 -10 -30 0 -16 -4 -30 -10 -30 -5 0 -10
17 -10 38 0 32 3 38 24 40 13 1 29 -5 36 -13z m368 -35 c-3 -47 -19 -60 -56
-45 -13 5 -14 8 -3 14 9 6 10 11 2 15 -14 9 -14 39 1 54 6 6 22 11 35 10 22
-2 24 -6 21 -48z m82 31 c15 -29 12 -61 -5 -61 -10 0 -15 10 -15 30 0 17 -4
30 -10 30 -5 0 -10 -13 -10 -30 0 -16 -4 -30 -10 -30 -5 0 -10 17 -10 38 0 33
3 38 25 40 15 1 28 -5 35 -17z m220 -2 c16 -29 3 -59 -26 -59 -13 0 -24 -4
-24 -10 0 -5 -4 -10 -10 -10 -10 0 -15 82 -6 91 14 14 57 7 66 -12z m-9195
-799 c10 -44 22 -77 25 -73 4 4 15 41 25 81 16 69 19 73 43 70 24 -3 28 -11
47 -87 l21 -84 19 84 c20 83 21 84 54 87 28 3 32 1 27 -15 -3 -10 -17 -61 -31
-113 -14 -52 -28 -103 -31 -112 -4 -13 -16 -18 -38 -18 -32 0 -33 2 -46 58
-19 90 -25 92 -45 13 -17 -70 -18 -71 -50 -71 l-32 0 -31 119 c-18 65 -32 124
-32 130 0 6 13 11 28 11 28 0 29 -3 47 -80z m555 -30 c0 -89 3 -110 14 -110 9
0 14 -9 13 -20 -1 -15 -8 -20 -32 -20 -50 0 -55 13 -55 142 l0 118 30 0 30 0
0 -110z m1625 30 c10 -44 22 -77 25 -73 4 4 15 41 25 81 16 69 19 73 43 70 24
-3 28 -11 47 -87 l21 -84 19 84 c20 83 21 84 54 87 28 3 32 1 27 -15 -3 -10
-17 -61 -31 -113 -14 -52 -28 -103 -31 -112 -4 -13 -16 -18 -38 -18 -32 0 -33
2 -46 58 -19 90 -25 92 -45 13 -17 -70 -18 -71 -50 -71 l-32 0 -31 119 c-18
65 -32 124 -32 130 0 6 13 11 28 11 28 0 29 -3 47 -80z m345 55 c0 -21 -5 -25
-30 -25 -25 0 -30 4 -30 25 0 21 5 25 30 25 25 0 30 -4 30 -25z m609 -2 c15
-40 81 -225 81 -229 0 -2 -13 -4 -30 -4 -23 0 -31 5 -36 25 -6 22 -11 25 -55
25 -44 0 -51 -3 -59 -25 -7 -19 -17 -25 -40 -25 -16 0 -30 2 -30 4 0 2 21 61
46 130 l46 126 33 0 c26 0 35 -5 44 -27z m281 -104 l0 -131 -32 5 c-18 2 -41
0 -51 -5 -25 -13 -62 -3 -87 24 -31 33 -28 121 5 153 26 27 73 33 93 13 9 -9
12 -3 12 30 0 40 1 42 30 42 l30 0 0 -131z m318 109 c-2 -17 -11 -24 -30 -26
-24 -3 -28 0 -28 22 0 22 4 26 31 26 26 0 30 -3 27 -22z m915 -33 c10 -27 32
-85 47 -127 l29 -78 -34 0 c-27 0 -34 5 -39 25 -6 22 -11 25 -56 25 -45 0 -50
-3 -56 -25 -5 -19 -13 -25 -35 -25 -16 0 -29 4 -29 9 0 11 77 228 86 243 3 5
20 8 37 6 28 -3 34 -9 50 -53z m155 -77 l3 -128 -35 0 -34 0 -1 113 c-2 134 2
149 38 145 l26 -3 3 -127z m-3068 87 c0 -20 5 -25 25 -25 18 0 25 -5 25 -20 0
-15 -7 -20 -26 -20 -24 0 -25 -2 -22 -52 3 -46 6 -53 26 -56 14 -2 22 -10 22
-23 0 -16 -7 -19 -43 -19 -24 0 -48 5 -55 12 -7 7 -12 39 -12 75 0 49 -3 63
-15 63 -8 0 -15 9 -15 19 0 10 7 21 15 25 8 3 15 15 15 26 0 16 7 20 30 20 25
0 30 -4 30 -25z m-1321 -30 c16 -8 34 -28 40 -46 20 -57 17 -59 -60 -59 -71 0
-85 -10 -46 -34 12 -8 22 -7 37 2 20 12 70 17 70 6 0 -19 -25 -44 -55 -54 -70
-23 -135 23 -135 97 1 81 77 126 149 88z m330 0 c26 -13 41 -33 41 -56 0 -16
-57 -10 -64 7 -4 10 -15 14 -33 12 -25 -3 -28 -8 -31 -43 -1 -22 2 -46 7 -54
11 -18 61 -6 61 14 0 10 10 15 30 15 36 0 39 -16 10 -53 -24 -30 -74 -43 -112
-28 -67 25 -83 124 -28 174 34 31 75 35 119 12z m212 -2 c53 -32 62 -118 16
-161 -31 -28 -62 -35 -102 -22 -46 15 -65 44 -65 98 0 83 79 127 151 85z m219
2 c12 -14 15 -14 30 0 26 23 66 19 89 -11 17 -22 21 -41 21 -100 l0 -74 -30 0
c-30 0 -30 0 -30 59 0 72 -6 91 -30 91 -24 0 -30 -19 -30 -91 0 -56 -1 -59
-25 -59 -24 0 -25 2 -25 70 0 55 -3 72 -16 77 -27 10 -37 -14 -35 -81 l2 -66
-36 0 -35 0 2 95 2 96 38 -3 c21 -1 41 1 44 5 13 12 51 7 64 -8z m331 -14 c19
-20 29 -40 29 -60 l0 -31 -66 0 c-57 0 -65 -2 -62 -17 4 -22 34 -28 63 -13 12
6 32 10 45 8 l22 -3 -21 -27 c-40 -50 -122 -46 -157 7 -9 14 -16 44 -16 68 1
87 101 129 163 68z m461 1 c27 -27 34 -91 14 -130 -23 -44 -80 -61 -128 -38
-74 35 -78 147 -8 184 33 17 98 9 122 -16z m750 -2 c10 -12 18 -26 18 -31 0
-15 -52 -10 -70 6 -18 17 -53 10 -47 -9 2 -6 23 -16 46 -23 24 -7 49 -18 57
-24 21 -17 17 -53 -7 -75 -43 -38 -159 -15 -159 33 0 15 56 18 65 3 3 -5 18
-10 31 -10 39 0 23 23 -25 37 -24 7 -49 18 -57 24 -23 19 -16 56 14 79 35 29
107 23 134 -10z m187 15 c16 -8 34 -28 40 -46 20 -57 17 -59 -60 -59 -71 0
-85 -10 -46 -34 12 -8 22 -7 37 2 20 12 70 17 70 6 0 -19 -25 -44 -55 -54 -70
-23 -135 23 -135 97 1 81 77 126 149 88z m1010 0 c26 -13 41 -33 41 -56 0 -16
-57 -10 -64 7 -4 10 -15 14 -33 12 -24 -3 -28 -8 -31 -41 -2 -21 2 -45 9 -53
17 -21 50 -17 56 6 6 24 63 29 63 6 0 -25 -41 -65 -73 -71 -69 -13 -122 35
-121 109 2 75 82 118 153 81z m222 -14 c19 -20 29 -40 29 -60 l0 -31 -66 0
c-57 0 -65 -2 -62 -17 4 -21 45 -30 61 -14 13 13 67 15 67 3 0 -13 -43 -49
-68 -57 -30 -9 -88 12 -107 38 -8 12 -15 41 -15 65 0 58 41 102 95 102 27 0
44 -8 66 -29z m203 8 c14 -11 26 -27 26 -35 0 -20 -50 -18 -65 3 -7 9 -19 14
-29 10 -19 -7 -22 -37 -3 -37 33 0 88 -23 97 -41 38 -69 -100 -119 -161 -58
-27 27 -24 39 10 39 17 0 33 -4 36 -10 9 -15 55 -12 55 4 0 8 -16 17 -37 21
-63 12 -75 22 -71 63 2 27 9 40 28 49 37 19 84 16 114 -8z m-1814 -84 l0 -95
-30 0 -30 0 0 95 0 95 30 0 30 0 0 -95z m996 40 c10 -30 21 -55 24 -55 3 0 14
25 24 55 16 51 19 55 48 55 20 0 29 -4 26 -12 -3 -7 -18 -50 -34 -95 -29 -83
-29 -83 -64 -83 -35 0 -35 0 -64 83 -16 45 -31 88 -34 95 -3 8 6 12 26 12 29
0 32 -4 48 -55z m214 -40 l0 -95 -30 0 -30 0 0 95 0 95 30 0 30 0 0 -95z
m-4492 -417 c7 -7 12 -16 12 -21 0 -5 -7 -1 -16 7 -23 23 -51 19 -70 -10 -30
-45 12 -114 54 -88 24 15 27 41 5 47 -12 3 -8 5 10 6 25 1 27 -2 27 -36 0 -22
-4 -33 -8 -26 -5 8 -13 9 -22 3 -42 -26 -90 6 -90 60 0 56 63 93 98 58z m1034
-76 c2 -28 0 -52 -4 -52 -5 0 -7 33 -7 73 2 76 6 68 11 -21z m378 20 l0 -69
-32 1 c-54 2 -73 72 -26 97 14 7 23 7 34 -2 11 -9 14 -7 14 15 0 14 2 26 5 26
3 0 5 -31 5 -68z m280 1 l0 -68 -35 -2 c-52 -4 -72 43 -37 87 16 19 22 21 40
11 20 -11 22 -9 22 14 0 14 2 25 5 25 3 0 5 -30 5 -67z m498 60 c-10 -2 -18
-11 -18 -19 0 -8 8 -15 18 -15 16 -1 16 -2 0 -6 -12 -3 -18 -17 -20 -51 l-3
-47 -5 53 c-6 63 3 92 27 91 17 -1 17 -2 1 -6z m874 -63 c14 -38 22 -70 18
-70 -4 0 -10 9 -13 20 -8 30 -72 28 -80 -2 -4 -12 -9 -20 -12 -17 -5 5 5 39
34 112 6 15 15 27 19 27 5 0 21 -31 34 -70z m55 -37 c-2 -21 -4 -4 -4 37 0 41
2 58 4 38 2 -21 2 -55 0 -75z m2891 100 c-20 -5 -24 -33 -5 -34 10 0 10 -2 0
-6 -8 -3 -13 -23 -13 -49 0 -24 -3 -44 -8 -44 -4 0 -6 20 -4 45 2 26 0 45 -6
45 -6 0 -6 9 1 25 7 15 20 24 32 24 17 -1 17 -2 3 -6z m99 -70 c-2 -16 -4 -3
-4 27 0 30 2 43 4 28 2 -16 2 -40 0 -55z m121 70 c-10 -2 -18 -8 -18 -13 0 -5
8 -14 18 -19 16 -10 16 -10 0 -11 -13 0 -18 -11 -20 -47 l-3 -48 -5 53 c-6 63
3 92 27 91 17 -1 17 -2 1 -6z m-6030 -34 c15 -1 15 -2 0 -6 -13 -3 -18 -14
-18 -38 0 -22 6 -38 18 -45 15 -10 15 -10 -3 -8 -15 2 -21 12 -23 43 -2 22 -9
43 -15 47 -9 6 -9 8 1 8 6 0 13 8 13 18 1 16 2 16 6 0 2 -10 12 -19 21 -19z
m3516 -1 c8 -5 7 -8 -1 -8 -7 0 -13 -12 -13 -26 0 -14 -4 -23 -9 -19 -6 3 -8
14 -6 25 2 11 0 20 -6 20 -5 0 -4 9 3 20 9 13 14 16 17 8 2 -7 9 -16 15 -20z
m289 -6 c-20 -5 -16 -69 5 -82 15 -10 15 -10 -3 -8 -16 3 -21 13 -25 48 -3 25
-4 52 -2 62 4 15 5 15 21 0 12 -13 13 -18 4 -20z m1665 7 c15 -1 15 -2 0 -6
-13 -3 -18 -14 -18 -38 0 -22 6 -38 18 -45 15 -10 15 -10 -3 -8 -16 3 -21 12
-23 46 -2 23 -7 42 -13 42 -5 0 -4 9 3 20 10 17 14 18 16 5 2 -8 11 -16 20
-16z m-5554 -5 c27 -27 20 -44 -19 -44 -25 0 -35 -4 -35 -15 0 -20 28 -31 43
-16 17 17 31 13 17 -4 -25 -31 -80 -6 -80 36 0 20 33 59 49 59 5 0 17 -7 25
-16z m237 6 c13 -7 19 -21 19 -44 0 -39 -21 -61 -50 -53 -15 4 -20 0 -20 -16
0 -11 -3 -18 -6 -14 -4 3 -6 32 -6 64 0 55 5 64 40 72 2 1 12 -4 23 -9z m110
0 c10 -6 19 -20 19 -30 0 -16 -7 -20 -35 -20 -23 0 -35 -5 -35 -14 0 -20 28
-28 53 -14 20 10 21 10 8 -5 -16 -20 -42 -22 -59 -5 -18 18 -15 75 6 87 21 13
20 13 43 1z m175 -5 c18 -14 17 -14 -13 -9 -45 9 -46 -21 -2 -31 24 -5 29 -11
27 -28 -4 -27 -49 -35 -68 -13 -14 18 0 22 17 5 13 -13 43 -5 43 10 0 5 -13
14 -30 20 -41 14 -41 54 1 60 3 1 14 -6 25 -14z m115 -6 c15 -15 19 -28 14
-47 -10 -41 -47 -56 -73 -30 -18 18 -15 75 6 87 24 15 29 14 53 -10z m108 7
c7 -8 11 -33 8 -58 l-4 -43 -1 46 c-1 31 -7 49 -17 53 -20 7 -44 -20 -38 -44
3 -11 1 -20 -4 -20 -5 0 -9 10 -7 23 1 12 3 27 3 34 1 10 14 17 42 22 4 0 12
-5 18 -13z m108 2 c6 -7 13 -31 15 -53 l5 -40 -39 -3 c-27 -2 -40 2 -44 13 -9
21 14 45 42 45 15 0 24 6 24 16 0 12 -7 15 -30 12 -32 -5 -42 7 -12 15 28 8
29 7 39 -5z m314 2 c10 -6 19 -20 19 -30 0 -16 -7 -20 -35 -20 -24 0 -35 -5
-35 -14 0 -21 38 -30 58 -14 15 12 16 11 3 -4 -16 -21 -42 -23 -59 -6 -18 18
-15 75 6 87 21 13 20 13 43 1z m278 1 c8 -5 17 -29 21 -53 l6 -44 -35 -1 c-64
-2 -78 39 -20 54 37 10 33 29 -6 26 -28 -1 -29 -1 -11 13 23 16 26 17 45 5z
m382 -1 c10 -6 19 -16 19 -22 0 -9 -3 -9 -12 0 -20 20 -55 14 -61 -10 -11 -39
29 -79 48 -48 3 6 11 10 17 10 7 0 6 -6 -2 -15 -16 -19 -44 -19 -64 1 -22 21
-20 50 4 74 23 23 25 23 51 10z m113 -6 c28 -28 20 -44 -24 -44 -43 0 -50 -9
-24 -31 12 -10 20 -10 35 -1 26 16 34 15 19 -3 -18 -21 -57 -19 -70 4 -14 28
-12 52 7 73 20 22 37 23 57 2z m297 6 c22 -12 27 -68 7 -88 -27 -27 -78 -1
-78 39 0 17 32 59 46 59 3 0 14 -5 25 -10z m114 0 c4 -7 13 -6 26 1 32 17 49
-5 47 -60 l-1 -46 -4 45 c-3 24 -9 48 -15 51 -24 15 -38 -4 -39 -50 l-2 -46
-6 43 c-4 23 -12 47 -17 52 -17 17 -37 -7 -44 -52 l-7 -43 -2 53 c0 29 3 51 7
48 4 -2 14 -1 22 5 19 11 27 11 35 -1z m229 -6 c19 -18 21 -65 4 -82 -18 -18
-56 -14 -68 7 -16 31 -12 59 12 75 28 20 33 20 52 0z m575 7 c8 -5 17 -29 21
-53 l6 -45 -40 1 c-31 1 -42 5 -44 20 -5 22 13 36 46 36 15 0 22 5 19 13 -2 7
-19 11 -38 10 -32 -1 -33 0 -15 13 23 16 26 17 45 5z m105 3 c27 -10 18 -21
-14 -16 -41 6 -38 -14 5 -32 19 -8 35 -19 35 -24 0 -30 -68 -42 -78 -14 -3 11
0 11 16 1 20 -13 52 -7 52 10 0 5 -14 12 -31 16 -35 8 -47 28 -29 50 14 17 21
18 44 9z m112 -8 c18 -14 17 -14 -11 -13 -41 3 -44 -16 -5 -27 24 -7 30 -14
28 -30 -4 -26 -49 -34 -68 -12 -14 18 0 22 17 5 13 -13 43 -5 43 11 0 6 -13
13 -29 16 -36 8 -49 34 -25 51 22 16 26 16 50 -1z m138 8 c27 -10 18 -21 -14
-16 -42 6 -38 -14 6 -33 47 -20 44 -50 -5 -50 -20 0 -36 6 -39 13 -3 11 0 11
16 1 27 -17 59 -5 42 16 -7 8 -21 15 -32 15 -27 0 -35 30 -13 46 22 16 19 16
39 8z m185 -3 c8 -5 17 -29 21 -53 l6 -44 -35 -1 c-64 -2 -78 39 -20 54 37 10
33 29 -6 26 -28 -1 -29 -1 -11 13 23 16 26 17 45 5z m115 -7 c10 -10 15 -31
14 -57 l-1 -42 -4 42 c-2 23 -11 47 -19 53 -22 19 -42 -4 -47 -53 -3 -39 -4
-38 -5 11 -1 31 2 51 7 47 5 -3 12 -1 16 5 9 14 21 12 39 -6z m240 0 c19 -18
21 -65 4 -82 -46 -46 -105 32 -61 80 20 22 37 23 57 2z m116 -3 c5 -11 9 -37
8 -58 l-1 -38 -6 45 c-5 40 -9 45 -31 45 -22 0 -26 -5 -31 -45 l-6 -45 -1 53
c-1 29 2 51 6 48 4 -2 14 -1 22 5 22 13 28 11 40 -10z m257 7 c6 -7 13 -31 16
-53 l7 -41 -43 1 c-35 0 -42 3 -42 20 0 14 10 23 33 30 42 12 44 39 2 33 -24
-4 -27 -2 -19 9 14 16 34 17 46 1z m235 -5 c34 -30 13 -93 -31 -93 -40 0 -57
63 -25 94 20 20 33 20 56 -1z m214 2 c18 -14 17 -14 -13 -9 -45 9 -46 -21 -2
-31 24 -5 29 -11 27 -28 -4 -27 -49 -35 -68 -13 -14 18 0 22 17 5 13 -13 43
-5 43 10 0 5 -13 14 -30 20 -41 14 -41 54 1 60 3 1 14 -6 25 -14z m156 3 c9
-7 18 -31 20 -54 l3 -41 -40 1 c-33 1 -41 5 -43 23 -3 17 3 24 27 30 39 10 36
29 -4 26 -28 -1 -29 -1 -11 13 24 17 28 17 48 2z m102 6 c27 -10 18 -21 -14
-16 -41 6 -38 -14 5 -32 41 -17 46 -43 10 -52 -29 -7 -55 0 -55 16 0 7 7 6 19
-1 19 -13 51 -6 51 10 0 5 -14 12 -31 16 -35 8 -47 28 -29 50 14 17 21 18 44
9z m126 -14 c24 -24 25 -38 4 -69 -12 -16 -23 -22 -40 -18 -17 3 -24 -1 -27
-17 -2 -12 -5 10 -6 47 0 40 3 66 8 62 5 -3 12 -1 16 5 9 15 23 12 45 -10z
m110 0 c30 -30 25 -40 -20 -40 -43 0 -50 -9 -24 -31 12 -10 20 -10 35 -1 11 7
19 8 19 2 0 -16 -49 -23 -65 -10 -20 16 -19 64 1 84 20 21 30 20 54 -4z m110
5 c7 -9 10 -18 6 -22 -3 -3 -6 -1 -6 6 0 8 -11 11 -27 9 -23 -2 -28 -8 -28
-32 0 -39 31 -59 51 -32 12 17 14 17 14 3 0 -21 -45 -33 -65 -17 -20 16 -19
64 1 84 20 20 38 20 54 1z m164 9 c27 -10 18 -21 -14 -16 -41 6 -38 -14 5 -32
38 -16 43 -27 21 -46 -19 -15 -58 -9 -64 10 -4 12 -2 13 9 3 18 -17 49 -16 49
1 0 8 -13 19 -30 25 -20 6 -30 17 -30 30 0 25 24 37 54 25z m170 -10 c19 -18
21 -65 4 -82 -46 -46 -105 32 -61 80 20 22 37 23 57 2z m400 0 c27 -27 20 -44
-20 -44 -28 0 -35 -3 -32 -17 3 -19 48 -32 48 -14 0 6 5 11 11 11 8 0 7 -5 -1
-16 -20 -24 -63 -14 -74 18 -7 20 -5 33 8 52 19 30 38 33 60 10z m-5779 -3
c-14 -6 -22 -21 -26 -52 l-6 -44 -1 50 c-2 49 -1 51 26 52 22 1 24 0 7 -6z
m532 -68 c-2 -16 -4 -3 -4 27 0 30 2 43 4 28 2 -16 2 -40 0 -55z m113 69 c0
-5 -13 -21 -30 -37 -38 -36 -38 -43 3 -48 28 -3 26 -4 -10 -5 -24 -1 -43 2
-43 6 0 4 16 24 36 43 l35 34 -33 6 -33 6 38 2 c20 0 37 -3 37 -7z m555 -32
c10 -45 23 -45 36 0 7 22 14 38 17 35 7 -6 -28 -95 -37 -95 -4 0 -13 17 -20
38 -8 20 -16 43 -19 51 -3 9 -1 12 6 8 6 -4 13 -21 17 -37z m92 -37 c-2 -16
-4 -3 -4 27 0 30 2 43 4 28 2 -16 2 -40 0 -55z m418 68 c-14 -6 -22 -21 -26
-52 l-6 -44 -1 50 c-2 49 -1 51 26 52 22 1 24 0 7 -6z m511 -78 c22 -8 46 18
41 44 -2 13 0 23 4 23 5 0 9 -17 9 -37 0 -36 -2 -38 -32 -40 -39 -3 -48 10
-46 62 l1 40 4 -43 c3 -26 10 -45 19 -49z m122 80 c-14 -3 -18 -15 -18 -49 0
-24 -3 -44 -7 -44 -5 0 -8 23 -8 50 0 47 2 50 25 49 17 -1 19 -3 8 -6z m649
-70 c-2 -16 -4 -3 -4 27 0 30 2 43 4 28 2 -16 2 -40 0 -55z m863 10 c1 -27 17
-11 29 28 7 23 14 39 17 37 6 -7 -27 -98 -36 -98 -9 0 -40 74 -39 93 1 14 28
-42 29 -60z m217 55 c-9 -7 -18 -31 -20 -53 -3 -35 -4 -34 -5 13 -2 47 0 52
20 52 20 0 20 -1 5 -12z m50 -65 c-2 -16 -4 -3 -4 27 0 30 2 43 4 28 2 -16 2
-40 0 -55z m188 -8 c16 0 21 8 25 45 l6 45 4 -47 c5 -45 4 -48 -22 -53 -40 -9
-48 1 -46 53 l1 47 6 -45 c5 -36 10 -45 26 -45z m1302 8 c-2 -16 -4 -3 -4 27
0 30 2 43 4 28 2 -16 2 -40 0 -55z m-2442 -22 c-6 -5 -25 10 -25 20 0 5 6 4
14 -3 8 -7 12 -15 11 -17z m2399 14 c3 -8 1 -15 -3 -15 -5 0 -11 7 -15 15 -3
8 -1 15 3 15 5 0 11 -7 15 -15z m-9144 -895 c36 -36 16 -57 -22 -23 -27 24
-53 6 -53 -37 0 -42 29 -64 49 -37 7 9 21 17 30 17 14 0 15 -4 6 -21 -15 -27
-49 -38 -82 -27 -29 10 -41 35 -40 83 2 57 72 85 112 45z m940 5 c0 -8 -7 -15
-15 -15 -8 0 -15 7 -15 15 0 8 7 15 15 15 8 0 15 -7 15 -15z m2980 0 c0 -8 -7
-15 -15 -15 -8 0 -15 7 -15 15 0 8 7 15 15 15 8 0 15 -7 15 -15z m490 0 c0 -8
-7 -15 -15 -15 -8 0 -15 7 -15 15 0 8 7 15 15 15 8 0 15 -7 15 -15z m570 0 c0
-8 -7 -15 -15 -15 -8 0 -15 7 -15 15 0 8 7 15 15 15 8 0 15 -7 15 -15z m2030
0 c0 -8 -7 -15 -15 -15 -8 0 -15 7 -15 15 0 8 7 15 15 15 8 0 15 -7 15 -15z
m500 0 c0 -8 -7 -15 -15 -15 -8 0 -15 7 -15 15 0 8 7 15 15 15 8 0 15 -7 15
-15z m610 0 c0 -8 -7 -15 -15 -15 -8 0 -15 7 -15 15 0 8 7 15 15 15 8 0 15 -7
15 -15z m-7485 -12 c4 -10 15 -42 25 -70 16 -45 17 -53 4 -53 -8 0 -17 7 -20
15 -4 8 -18 15 -34 15 -16 0 -30 -7 -34 -15 -3 -8 -12 -15 -20 -15 -13 0 -12
8 4 53 29 83 31 87 50 87 10 0 21 -8 25 -17z m145 -53 l0 -70 -44 0 c-47 0
-56 9 -56 59 0 33 16 51 47 51 14 0 23 6 23 15 0 8 7 15 15 15 12 0 15 -14 15
-70z m2727 62 c18 -11 16 -132 -3 -132 -8 0 -14 10 -14 25 0 20 -5 25 -25 25
-20 0 -25 -5 -25 -25 0 -16 -6 -25 -15 -25 -12 0 -15 14 -15 70 l0 70 43 0
c23 0 47 -4 54 -8z m173 -52 c0 -33 4 -60 10 -60 6 0 10 6 10 14 0 8 16 20 36
26 23 8 32 16 26 22 -6 6 -17 5 -30 -3 -25 -16 -40 -5 -22 16 15 18 64 20 77
3 6 -7 13 -32 16 -55 l5 -41 -77 1 -76 2 -3 68 c-2 55 0 67 13 67 12 0 15 -13
15 -60z m620 46 c0 -9 12 -16 28 -18 25 -3 27 -7 30 -55 2 -42 0 -53 -12 -53
-10 0 -16 13 -18 43 -2 23 -7 42 -13 42 -5 0 -11 -19 -13 -42 -3 -42 -22 -58
-38 -32 -4 8 -9 8 -17 0 -17 -17 -77 -14 -84 4 -7 21 4 32 19 17 15 -15 38
-16 38 -2 0 6 -8 10 -18 10 -41 0 -58 54 -21 65 29 9 69 -2 69 -20 0 -18 -26
-20 -33 -2 -3 8 -8 9 -16 2 -8 -8 -1 -15 24 -27 l35 -16 0 49 c0 42 3 49 20
49 11 0 20 -6 20 -14z m391 -41 c31 -82 32 -85 14 -85 -8 0 -18 7 -21 15 -4 9
-19 15 -35 15 -19 0 -29 -5 -29 -15 0 -8 -9 -15 -20 -15 -18 0 -18 2 5 65 14
36 25 68 25 71 0 3 9 4 21 2 15 -2 27 -18 40 -53z m129 -15 l0 -70 -44 0 c-47
0 -56 9 -56 59 0 33 16 51 47 51 14 0 23 6 23 15 0 8 7 15 15 15 12 0 15 -14
15 -70z m2150 60 c0 -5 -16 -10 -35 -10 -28 0 -35 -4 -35 -20 0 -16 7 -20 35
-20 19 0 35 -4 35 -10 0 -5 -16 -10 -35 -10 -32 0 -35 -2 -35 -30 0 -20 -5
-30 -15 -30 -12 0 -15 14 -15 70 l0 70 50 0 c28 0 50 -4 50 -10z m690 -50 c0
-33 4 -60 10 -60 6 0 10 -4 10 -9 0 -5 -35 -9 -77 -8 -76 2 -78 3 -78 27 0 17
7 26 24 30 14 3 26 11 29 18 5 15 -3 15 -28 0 -24 -15 -37 -4 -20 17 15 18 66
20 76 3 4 -7 11 -28 15 -48 6 -29 7 -25 8 28 1 48 4 62 16 62 12 0 15 -13 15
-60z m155 43 c4 -10 15 -42 25 -70 16 -45 17 -53 4 -53 -8 0 -17 7 -20 15 -4
8 -18 15 -34 15 -16 0 -30 -7 -34 -15 -3 -8 -12 -15 -20 -15 -14 0 -9 25 29
128 7 18 42 15 50 -5z m145 -53 l0 -70 -44 0 c-48 0 -53 3 -60 42 -6 37 20 71
50 65 18 -3 24 0 24 14 0 11 7 19 15 19 12 0 15 -14 15 -70z m2429 30 c16 -55
27 -57 41 -5 10 37 17 45 36 45 23 0 24 -3 24 -70 0 -56 -3 -70 -15 -70 -10 0
-15 11 -16 38 l-1 37 -15 -37 c-20 -48 -49 -51 -58 -7 -8 34 -13 34 -18 -2 -2
-13 -10 -24 -18 -24 -10 0 -14 16 -15 60 -2 69 0 75 25 75 12 0 22 -13 30 -40z
m551 -20 c0 -33 4 -60 10 -60 6 0 10 -4 10 -9 0 -5 -35 -9 -77 -8 -76 2 -78 3
-78 27 0 17 7 26 24 30 14 3 26 11 29 18 5 15 -3 15 -28 0 -24 -15 -37 -4 -20
17 15 18 66 20 76 3 4 -7 11 -28 15 -48 6 -29 7 -25 8 28 1 48 4 62 16 62 12
0 15 -13 15 -60z m100 30 c0 -25 4 -30 25 -30 25 0 29 8 26 43 -2 11 5 17 18
17 19 0 21 -6 21 -70 0 -64 -2 -70 -20 -70 -12 0 -20 6 -19 13 4 35 -2 47 -26
47 -21 0 -25 -5 -25 -30 0 -20 -5 -30 -15 -30 -12 0 -15 14 -15 70 0 56 3 70
15 70 10 0 15 -10 15 -30z m360 -24 c0 -30 3 -61 6 -70 4 -12 0 -16 -15 -16
-19 0 -21 5 -21 70 0 56 3 70 15 70 11 0 15 -13 15 -54z m130 40 c0 -9 12 -16
28 -18 25 -3 27 -7 30 -55 2 -42 0 -53 -12 -53 -10 0 -16 13 -18 43 -4 55 -22
54 -26 -1 l-3 -43 -47 3 c-46 3 -47 4 -50 38 -2 19 -8 40 -14 47 -7 9 -5 17 5
28 19 18 34 19 39 3 3 -7 12 -9 22 -5 9 4 14 11 11 17 -3 5 3 10 14 10 12 0
21 -6 21 -14z m-7680 -6 c0 -5 7 -10 15 -10 8 0 15 -4 15 -10 0 -5 -7 -10 -15
-10 -10 0 -15 -10 -15 -30 0 -18 6 -33 15 -36 23 -9 18 -24 -9 -24 -26 0 -36
16 -36 61 0 16 -5 29 -10 29 -6 0 -5 8 2 20 13 21 38 27 38 10z m6925 -6 c13
-10 16 -17 9 -22 -18 -11 -24 -63 -8 -69 23 -9 16 -23 -11 -23 -25 0 -27 5
-38 74 -9 55 9 69 48 40z m-10669 -12 c6 -4 16 -25 22 -47 l10 -40 1 47 c1 45
2 47 31 46 37 -1 50 -17 21 -25 -17 -4 -21 -13 -21 -44 l0 -38 -67 0 c-38 1
-71 6 -75 12 -10 16 10 47 31 47 21 0 32 9 25 21 -3 5 -14 3 -24 -3 -24 -15
-37 -4 -20 17 13 16 47 20 66 7z m191 -12 c17 -19 17 -19 30 0 27 38 93 15 93
-31 0 -15 -7 -19 -35 -19 -19 0 -35 -5 -35 -10 0 -7 14 -8 38 -4 34 7 36 6 23
-9 -19 -24 -68 -22 -83 3 -9 14 -24 20 -50 20 -21 0 -38 -5 -38 -10 0 -7 14
-8 38 -4 34 7 36 6 23 -10 -22 -27 -73 -17 -89 17 -12 24 -11 31 2 53 20 29
60 32 83 4z m203 5 c0 -7 -9 -15 -20 -18 -15 -4 -20 -14 -20 -41 0 -25 -4 -36
-15 -36 -11 0 -15 13 -15 54 l0 54 35 0 c22 0 35 -5 35 -13z m335 -25 l12 -35
12 38 c7 20 19 37 27 37 18 0 18 -5 -3 -63 -24 -66 -49 -62 -74 11 -17 48 -17
53 -2 50 9 -2 22 -19 28 -38z m105 -15 c0 -42 -3 -55 -15 -55 -12 0 -15 13
-15 55 0 42 3 55 15 55 12 0 15 -13 15 -55z m104 39 c15 -14 17 -14 32 0 23
24 61 20 80 -9 21 -31 11 -45 -32 -45 -22 0 -33 -4 -29 -11 4 -6 19 -7 37 -4
23 6 29 4 26 -6 -7 -22 -70 -24 -86 -2 -12 17 -14 17 -23 1 -14 -25 -75 -24
-89 1 -32 61 37 123 84 75z m2581 -4 c26 -28 13 -50 -30 -50 -23 0 -34 -4 -30
-11 4 -6 19 -7 37 -4 23 6 29 4 26 -6 -7 -22 -70 -24 -85 -3 -42 58 34 127 82
74z m295 -35 c0 -42 -3 -55 -15 -55 -12 0 -15 13 -15 55 0 42 3 55 15 55 12 0
15 -13 15 -55z m104 39 c35 -35 12 -94 -37 -94 -40 0 -57 15 -57 51 0 34 24
59 55 59 13 0 31 -7 39 -16z m114 4 c18 -15 16 -98 -2 -98 -10 0 -16 14 -18
43 -2 29 -8 42 -18 42 -10 0 -16 -13 -18 -42 -2 -29 -8 -43 -18 -43 -10 0 -14
14 -14 54 l0 54 38 0 c20 0 43 -5 50 -10z m272 -43 c0 -42 -3 -55 -15 -55 -12
0 -15 13 -15 55 0 42 3 55 15 55 12 0 15 -13 15 -55z m102 49 c21 -6 33 -57
18 -83 -7 -14 -21 -21 -40 -21 -20 0 -30 -5 -30 -15 0 -8 -7 -15 -15 -15 -12
0 -15 14 -15 69 l0 70 33 -1 c17 0 40 -2 49 -4z m363 -34 l12 -35 12 38 c7 20
19 37 27 37 18 0 18 -5 -3 -63 -24 -66 -49 -62 -74 11 -17 48 -17 53 -2 50 9
-2 22 -19 28 -38z m105 -15 c0 -42 -3 -55 -15 -55 -12 0 -15 13 -15 55 0 42 3
55 15 55 12 0 15 -13 15 -55z m105 39 c15 -15 17 -15 34 0 10 9 26 16 36 16
25 0 55 -29 55 -52 0 -14 -8 -18 -41 -18 -26 0 -38 -4 -34 -11 4 -6 19 -7 37
-4 23 6 29 4 26 -6 -7 -22 -70 -24 -86 -2 -12 17 -14 17 -23 1 -14 -25 -75
-24 -89 1 -32 61 37 122 85 75z m1925 -39 c0 -42 -3 -55 -15 -55 -12 0 -15 13
-15 55 0 42 3 55 15 55 12 0 15 -13 15 -55z m108 43 c18 -15 16 -98 -3 -98
-11 0 -15 11 -15 38 0 21 -3 42 -7 45 -13 13 -33 -16 -33 -49 0 -24 -5 -34
-15 -34 -11 0 -15 13 -15 54 l0 54 38 0 c20 0 43 -5 50 -10z m110 0 c7 -7 12
-27 12 -44 0 -18 3 -35 8 -38 4 -2 7 17 7 42 l0 47 45 0 45 0 3 -52 c2 -42 0
-53 -12 -53 -10 0 -16 13 -18 40 -4 54 -22 56 -26 3 l-3 -43 -72 3 c-65 2 -72
4 -75 24 -2 17 5 24 33 33 24 8 33 16 27 22 -6 6 -17 5 -30 -3 -25 -16 -40 -5
-22 16 15 18 61 20 78 3z m228 -5 c17 -17 17 -18 0 -21 -9 -2 -23 1 -30 7 -18
15 -40 -11 -31 -39 7 -21 29 -27 40 -10 3 6 13 10 21 10 12 0 12 -4 4 -20 -15
-27 -75 -28 -90 -1 -33 62 37 122 86 74z m54 -38 c0 -42 -3 -55 -15 -55 -12 0
-15 13 -15 55 0 42 3 55 15 55 12 0 15 -13 15 -55z m501 18 l12 -38 12 35 c6
19 20 37 29 38 14 3 17 -1 11 -19 -32 -100 -63 -118 -84 -48 -7 23 -15 47 -18
55 -3 8 1 14 10 14 9 0 21 -16 28 -37z m109 -18 c0 -42 -3 -55 -15 -55 -12 0
-15 13 -15 55 0 42 3 55 15 55 12 0 15 -13 15 -55z m104 39 c15 -14 17 -14 32
0 23 24 61 20 80 -9 21 -31 11 -45 -32 -45 -22 0 -33 -4 -29 -11 4 -6 19 -7
37 -4 23 6 29 4 26 -6 -7 -21 -67 -23 -88 -4 -16 14 -18 14 -23 0 -8 -18 -67
-21 -85 -3 -17 17 -15 64 4 82 8 9 26 16 39 16 13 0 31 -7 39 -16z m2370 -6
c16 -22 17 -22 20 5 1 7 17 12 46 12 l45 0 3 -52 c2 -42 0 -53 -12 -53 -10 0
-16 13 -18 43 -2 23 -7 42 -13 42 -5 0 -11 -19 -13 -42 -3 -34 -7 -43 -22 -43
-15 0 -18 6 -14 26 4 21 2 25 -11 20 -9 -3 -30 -6 -46 -6 -19 0 -28 -4 -24
-11 4 -6 19 -7 37 -4 23 6 29 4 26 -6 -3 -8 -20 -15 -38 -17 -38 -4 -60 16
-60 54 0 51 66 73 94 32z m642 -3 c21 -31 11 -45 -32 -45 -22 0 -33 -4 -29
-11 4 -6 19 -7 37 -4 23 6 29 4 26 -6 -3 -8 -20 -15 -38 -17 -38 -4 -60 16
-60 54 0 53 67 73 96 29z m101 13 c6 -7 13 -32 16 -55 l5 -41 -52 1 c-44 2
-51 5 -51 22 0 13 12 26 34 36 23 11 30 18 22 24 -7 4 -18 2 -24 -4 -6 -6 -17
-11 -24 -11 -11 0 -11 5 -3 20 12 23 62 28 77 8z m-8121 -213 c19 -29 8 -59
-40 -105 l-36 -34 -45 44 c-74 73 -57 118 45 118 52 0 63 -3 76 -23z m-3546
-94 c0 -5 9 -11 20 -14 17 -4 20 -14 20 -56 l0 -51 -70 0 -70 0 0 51 c0 42 3
52 20 56 11 3 20 9 20 14 0 5 14 9 30 9 17 0 30 -4 30 -9z m284 0 c4 -5 -4 -7
-15 -4 -15 4 -27 0 -35 -12 -8 -11 -14 -14 -14 -9 0 26 51 46 64 25z m455 -43
c-1 -34 -4 -42 -6 -23 -3 16 -10 33 -16 37 -9 6 -9 8 1 8 6 0 12 7 12 15 0 8
2 15 5 15 3 0 4 -24 4 -52z m3025 36 c3 -8 2 -12 -4 -9 -5 3 -11 -14 -13 -37
-3 -41 -4 -41 -5 10 -2 50 9 69 22 36z m718 -46 c2 -20 0 -34 -4 -32 -4 3 -7
26 -7 52 1 49 5 42 11 -20z m430 10 c-3 -61 -12 -60 -12 2 0 29 3 50 7 47 3
-4 6 -26 5 -49z m377 0 c-2 -48 -2 -49 -8 -18 -6 33 -3 70 5 70 2 0 3 -24 3
-52z m2404 22 c8 0 7 -3 -1 -9 -21 -13 -10 -46 15 -45 12 0 20 -3 17 -8 -3 -4
-16 -7 -29 -6 -23 2 -25 6 -24 53 1 27 3 42 6 33 2 -10 10 -18 16 -18z m829
-32 c2 -20 0 -34 -4 -32 -4 3 -7 26 -7 52 1 49 5 42 11 -20z m91 55 c-8 -2
-14 -25 -15 -51 -1 -45 -1 -46 -5 -8 -5 45 1 66 19 65 10 0 10 -2 1 -6z m1851
-27 c19 -41 19 -47 4 -81 -10 -22 -17 -25 -60 -25 -43 0 -50 3 -58 26 -14 36
-12 61 6 89 13 19 25 25 54 25 33 0 40 -4 54 -34z m267 17 c13 -15 12 -15 -7
-3 -12 7 -29 10 -38 7 -24 -10 -18 -71 8 -75 26 -5 45 16 26 28 -13 8 -12 10
3 10 28 0 21 -39 -8 -46 -32 -8 -55 11 -55 45 0 48 43 68 71 34z m1621 -45 c2
-21 0 -38 -4 -38 -4 0 -7 24 -7 53 1 54 5 49 11 -15z m-10259 -31 c8 -6 7 -7
-3 -4 -10 2 -15 18 -16 48 -1 44 -1 44 3 4 3 -22 10 -44 16 -48z m39 36 c-4
-55 -12 -54 -12 2 0 27 3 45 7 41 4 -4 6 -23 5 -43z m2481 -36 c8 -6 7 -7 -3
-4 -10 2 -15 18 -16 48 -1 44 -1 44 3 4 3 -22 10 -44 16 -48z m2387 63 c0 -11
5 -20 10 -20 6 0 10 -9 10 -20 0 -11 -5 -20 -10 -20 -6 0 -15 -11 -20 -24 -8
-21 -15 -24 -52 -23 -36 2 -44 6 -46 24 -2 12 -10 27 -18 33 -8 7 -14 20 -13
29 0 11 2 12 6 3 4 -10 10 -9 27 6 18 18 37 24 94 31 6 0 12 -8 12 -19z m5482
-27 c-4 -55 -12 -54 -12 2 0 27 3 45 7 41 4 -4 6 -23 5 -43z m-12067 27 c3 -5
1 -10 -4 -10 -6 0 -11 5 -11 10 0 6 2 10 4 10 3 0 8 -4 11 -10z m4990 0 c3 -5
1 -10 -4 -10 -6 0 -11 5 -11 10 0 6 2 10 4 10 3 0 8 -4 11 -10z m5450 0 c3 -5
1 -10 -4 -10 -6 0 -11 5 -11 10 0 6 2 10 4 10 3 0 8 -4 11 -10z m530 0 c3 -5
1 -10 -4 -10 -6 0 -11 5 -11 10 0 6 2 10 4 10 3 0 8 -4 11 -10z m90 0 c3 -5 1
-10 -4 -10 -6 0 -11 5 -11 10 0 6 2 10 4 10 3 0 8 -4 11 -10z m482 -12 c-3 -8
-6 -5 -6 6 -1 11 2 17 5 13 3 -3 4 -12 1 -19z m-11625 -17 c-3 -24 0 -30 19
-34 23 -5 23 -5 -1 -4 -25 2 -37 25 -26 53 9 23 13 16 8 -15z m46 4 c-3 -3 -9
2 -12 12 -6 14 -5 15 5 6 7 -7 10 -15 7 -18z m162 15 c0 -5 -2 -10 -4 -10 -3
0 -8 5 -11 10 -3 6 -1 10 4 10 6 0 11 -4 11 -10z m53 -53 c8 -6 7 -7 -3 -4 -9
2 -16 17 -16 38 -2 31 -1 31 3 4 3 -16 10 -34 16 -38z m64 11 c-2 -13 -4 -5
-4 17 -1 22 1 32 4 23 2 -10 2 -28 0 -40z m36 37 c-3 -9 -8 -14 -10 -11 -3 3
-2 9 2 15 9 16 15 13 8 -4z m154 -37 c-2 -13 -4 -5 -4 17 -1 22 1 32 4 23 2
-10 2 -28 0 -40z m166 45 c-7 -2 -13 -16 -13 -30 0 -22 4 -25 26 -20 16 3 22
1 16 -5 -15 -15 -46 -5 -50 15 -5 25 5 47 20 46 10 0 10 -2 1 -6z m35 -18 c-3
-3 -9 2 -12 12 -6 14 -5 15 5 6 7 -7 10 -15 7 -18z m112 15 c0 -5 -2 -10 -4
-10 -3 0 -8 5 -11 10 -3 6 -1 10 4 10 6 0 11 -4 11 -10z m80 0 c0 -5 -2 -10
-4 -10 -3 0 -8 5 -11 10 -3 6 -1 10 4 10 6 0 11 -4 11 -10z m73 -5 c-3 -9 -8
-14 -10 -11 -3 3 -2 9 2 15 9 16 15 13 8 -4z m119 -24 c2 -17 1 -28 -3 -26 -4
3 -9 18 -11 34 -2 17 -1 28 3 26 4 -3 9 -18 11 -34z m58 35 c0 -2 -7 -6 -15
-10 -8 -3 -15 -1 -15 4 0 6 7 10 15 10 8 0 15 -2 15 -4z m22 -27 c-4 -30 -3
-32 22 -27 18 4 24 2 18 -4 -26 -26 -62 10 -48 48 9 24 13 16 8 -17z m46 6
c-3 -3 -9 2 -12 12 -6 14 -5 15 5 6 7 -7 10 -15 7 -18z m34 -6 c-4 -30 -3 -32
22 -27 18 4 24 2 18 -4 -26 -26 -62 10 -48 48 9 24 13 16 8 -17z m98 27 c0 -2
-7 -6 -15 -10 -8 -3 -15 -1 -15 4 0 6 7 10 15 10 8 0 15 -2 15 -4z m110 -6 c0
-5 -2 -10 -4 -10 -3 0 -8 5 -11 10 -3 6 -1 10 4 10 6 0 11 -4 11 -10z m53 2
c-6 -4 -13 -21 -16 -37 -4 -27 -4 -27 -6 8 -1 29 3 37 17 37 11 0 13 -3 5 -8z
m157 -13 c0 -6 -4 -7 -10 -4 -5 3 -10 11 -10 16 0 6 5 7 10 4 6 -3 10 -11 10
-16z m390 17 c0 -3 -4 -8 -10 -11 -5 -3 -10 -1 -10 4 0 6 5 11 10 11 6 0 10
-2 10 -4z m1597 -48 c-2 -13 -4 -5 -4 17 -1 22 1 32 4 23 2 -10 2 -28 0 -40z
m38 23 c0 -16 -3 -27 -7 -24 -13 7 -7 53 6 53 1 0 1 -13 1 -29z m43 -13 c-2
-32 -8 -44 -22 -46 -10 -2 -22 0 -28 6 -6 6 -1 8 16 5 24 -5 25 -3 23 36 -2
23 1 41 6 41 4 0 7 -19 5 -42z m84 3 c2 -17 1 -28 -3 -26 -4 3 -9 18 -11 34
-2 17 -1 28 3 26 4 -3 9 -18 11 -34z m80 10 c-3 -24 0 -30 19 -34 23 -5 23 -5
-1 -4 -25 2 -37 25 -26 53 9 23 13 16 8 -15z m46 4 c-3 -3 -9 2 -12 12 -6 14
-5 15 5 6 7 -7 10 -15 7 -18z m82 21 c0 -2 -7 -7 -16 -10 -8 -3 -12 -2 -9 4 6
10 25 14 25 6z m32 -27 c-4 -30 -3 -32 22 -27 18 4 24 2 18 -4 -26 -26 -62 10
-48 48 9 24 13 16 8 -17z m160 -8 c2 -17 1 -28 -3 -26 -4 3 -9 18 -11 34 -2
17 -1 28 3 26 4 -3 9 -18 11 -34z m208 35 c0 -3 -4 -8 -10 -11 -5 -3 -10 -1
-10 4 0 6 5 11 10 11 6 0 10 -2 10 -4z m217 -48 c-2 -13 -4 -5 -4 17 -1 22 1
32 4 23 2 -10 2 -28 0 -40z m256 37 c-3 -9 -8 -14 -10 -11 -3 3 -2 9 2 15 9
16 15 13 8 -4z m204 -37 c-2 -13 -4 -5 -4 17 -1 22 1 32 4 23 2 -10 2 -28 0
-40z m80 30 c-3 -8 -6 -5 -6 6 -1 11 2 17 5 13 3 -3 4 -12 1 -19z m83 12 c0
-5 -2 -10 -4 -10 -3 0 -8 5 -11 10 -3 6 -1 10 4 10 6 0 11 -4 11 -10z m177
-12 c-3 -8 -6 -5 -6 6 -1 11 2 17 5 13 3 -3 4 -12 1 -19z m93 18 c0 -3 -4 -8
-10 -11 -5 -3 -10 -1 -10 4 0 6 5 11 10 11 6 0 10 -2 10 -4z m35 -6 c3 -6 -1
-7 -9 -4 -18 7 -21 14 -7 14 6 0 13 -4 16 -10z m1413 -15 c-3 -3 -9 2 -12 12
-6 14 -5 15 5 6 7 -7 10 -15 7 -18z m84 -15 c3 -16 1 -30 -3 -30 -4 0 -9 15
-11 34 -5 42 8 38 14 -4z m41 32 c-6 -4 -13 -21 -16 -37 -4 -27 -4 -27 -6 8
-1 29 3 37 17 37 11 0 13 -3 5 -8z m34 -44 c-2 -13 -4 -5 -4 17 -1 22 1 32 4
23 2 -10 2 -28 0 -40z m165 13 c2 -17 1 -28 -3 -26 -4 3 -9 18 -11 34 -2 17
-1 28 3 26 4 -3 9 -18 11 -34z m110 12 c-3 -16 -7 -22 -10 -15 -4 13 4 42 11
42 2 0 2 -12 -1 -27z m46 2 c-3 -3 -9 2 -12 12 -6 14 -5 15 5 6 7 -7 10 -15 7
-18z m29 -12 c-3 -10 -5 -4 -5 12 0 17 2 24 5 18 2 -7 2 -21 0 -30z m53 4 c0
-29 -3 -33 -27 -34 -26 -2 -27 -1 -5 7 15 6 22 18 22 35 0 14 2 25 5 25 3 0 5
-15 5 -33z m122 -7 c-2 -22 -6 -40 -8 -40 -2 0 -4 18 -4 40 0 22 3 40 8 40 4
0 6 -18 4 -40z m46 4 c-3 -14 -5 -12 -10 9 -3 19 -2 25 4 19 6 -6 8 -18 6 -28z
m34 7 c-3 -24 0 -30 19 -34 23 -5 23 -5 -1 -4 -25 2 -37 25 -26 53 9 23 13 16
8 -15z m46 4 c-3 -3 -9 2 -12 12 -6 14 -5 15 5 6 7 -7 10 -15 7 -18z m45 17
c-6 -4 -13 -21 -16 -37 -4 -27 -4 -27 -6 8 -1 29 3 37 17 37 11 0 13 -3 5 -8z
m147 -2 c0 -5 -2 -10 -4 -10 -3 0 -8 5 -11 10 -3 6 -1 10 4 10 6 0 11 -4 11
-10z m80 -5 c0 -8 -2 -15 -4 -15 -2 0 -6 7 -10 15 -3 8 -1 15 4 15 6 0 10 -7
10 -15z m82 -24 c2 -17 1 -28 -3 -26 -4 3 -9 18 -11 34 -2 17 -1 28 3 26 4 -3
9 -18 11 -34z m236 -7 c-3 -27 -4 -26 -9 8 -3 22 -1 34 4 29 5 -5 7 -21 5 -37z
m109 24 c-3 -8 -6 -5 -6 6 -1 11 2 17 5 13 3 -3 4 -12 1 -19z m155 -9 c-4 -30
-3 -32 22 -27 18 4 24 2 18 -4 -26 -26 -62 10 -48 48 9 24 13 16 8 -17z m46 6
c-3 -3 -9 2 -12 12 -6 14 -5 15 5 6 7 -7 10 -15 7 -18z m1735 5 c-3 -12 -8
-19 -11 -16 -5 6 5 36 12 36 2 0 2 -9 -1 -20z m45 -5 c-3 -3 -9 2 -12 12 -6
14 -5 15 5 6 7 -7 10 -15 7 -18z m207 -35 c7 0 16 5 18 10 3 6 4 5 3 -2 -2 -7
-11 -13 -22 -13 -14 0 -20 8 -21 33 -3 32 -3 32 3 2 3 -16 11 -30 19 -30z m67
30 c-4 -26 -1 -30 18 -30 19 0 22 4 18 30 -3 19 -1 27 5 21 18 -18 3 -54 -25
-62 -27 -7 -28 -6 -28 32 0 21 4 39 8 39 5 0 7 -13 4 -30z m90 21 c-21 -13
-10 -46 15 -45 12 0 19 -4 16 -9 -3 -5 -14 -7 -24 -4 -11 3 -20 -1 -22 -12 -3
-9 -5 2 -6 25 -1 42 4 54 23 54 6 0 5 -4 -2 -9z m116 -27 c-3 -14 -5 -12 -10
9 -3 19 -2 25 4 19 6 -6 8 -18 6 -28z m34 1 c-2 -19 -6 -35 -8 -35 -2 0 -4 16
-4 35 0 19 4 35 8 35 4 0 6 -16 4 -35z m228 25 c0 -5 -2 -10 -4 -10 -3 0 -8 5
-11 10 -3 6 -1 10 4 10 6 0 11 -4 11 -10z m54 3 c-5 -5 -12 -12 -16 -18 -4 -6
-8 -2 -8 8 0 9 7 17 17 17 9 0 12 -3 7 -7z m126 1 c0 -8 -19 -13 -24 -6 -3 5
1 9 9 9 8 0 15 -2 15 -3z m30 -29 c0 -19 -2 -35 -4 -35 -2 0 -6 16 -8 35 -2
19 0 35 4 35 4 0 8 -16 8 -35z m32 4 c-4 -30 -3 -32 22 -27 18 4 24 2 18 -4
-26 -26 -62 10 -48 48 9 24 13 16 8 -17z m46 6 c-3 -3 -9 2 -12 12 -6 14 -5
15 5 6 7 -7 10 -15 7 -18z m34 -10 c-2 -19 -6 -35 -8 -35 -2 0 -4 16 -4 35 0
19 4 35 8 35 4 0 6 -16 4 -35z m310 13 c-7 -7 -12 -8 -12 -2 0 14 12 26 19 19
2 -3 -1 -11 -7 -17z m336 -14 c-3 -14 -5 -12 -10 9 -3 19 -2 25 4 19 6 -6 8
-18 6 -28z m34 7 c-2 -19 1 -31 10 -34 9 -3 9 -4 -2 -3 -16 1 -25 29 -16 52 9
23 13 16 8 -15z m46 4 c-3 -3 -9 2 -12 12 -6 14 -5 15 5 6 7 -7 10 -15 7 -18z
m29 -27 c-2 -13 -4 -5 -4 17 -1 22 1 32 4 23 2 -10 2 -28 0 -40z m81 6 c-3
-27 -4 -26 -9 8 -3 22 -1 34 4 29 5 -5 7 -21 5 -37z m37 17 c0 -16 -3 -27 -7
-24 -13 7 -7 53 6 53 1 0 1 -13 1 -29z m43 -13 c-2 -32 -8 -44 -22 -46 -10 -2
-22 0 -28 6 -6 6 -1 8 16 5 24 -5 25 -3 23 36 -2 23 1 41 6 41 4 0 7 -19 5
-42z m-12536 -16 c27 4 35 25 11 31 -14 4 -13 5 5 6 17 1 22 -4 22 -22 0 -17
-6 -23 -26 -25 -31 -2 -54 14 -53 37 0 10 3 8 10 -7 6 -16 15 -22 31 -20z
m880 1 c16 5 18 3 9 -6 -15 -15 -45 3 -48 29 -2 14 0 12 7 -5 8 -17 16 -22 32
-18z m770 0 c16 5 18 3 9 -6 -15 -15 -45 3 -48 29 -2 14 0 12 7 -5 8 -17 16
-22 32 -18z m438 2 c-14 -17 -36 -20 -44 -6 -4 5 3 7 15 4 15 -4 22 0 26 18 4
13 8 18 11 11 2 -7 -2 -19 -8 -27z m87 13 c-3 -8 -6 -5 -6 6 -1 11 2 17 5 13
3 -3 4 -12 1 -19z m2265 -15 c16 5 18 3 9 -6 -15 -15 -45 3 -48 29 -2 14 0 12
7 -5 8 -17 16 -22 32 -18z m173 6 c0 -17 -33 -25 -47 -11 -6 6 0 8 16 5 15 -3
26 -1 26 6 0 6 -6 11 -14 11 -8 0 -18 4 -21 10 -4 6 2 7 17 1 13 -4 23 -14 23
-22z m270 0 c0 -8 -10 -15 -23 -15 -18 -1 -19 -1 -2 3 23 5 27 23 6 23 -8 0
-18 4 -21 10 -4 6 2 7 17 1 13 -4 23 -15 23 -22z m225 7 c0 -19 -5 -23 -27
-22 -30 1 -39 26 -13 33 13 4 13 3 0 -6 -18 -12 -7 -26 16 -17 9 3 14 12 10
21 -3 8 -1 15 4 15 6 0 10 -11 10 -24z m1942 -13 c16 5 18 3 9 -6 -15 -15 -45
3 -48 29 -2 14 0 12 7 -5 8 -17 16 -22 32 -18z m943 6 c0 -17 -33 -25 -47 -11
-6 6 0 8 16 5 15 -3 26 -1 26 6 0 6 -6 11 -14 11 -8 0 -18 4 -21 10 -4 6 2 7
17 1 13 -4 23 -14 23 -22z m57 -6 c16 5 18 3 9 -6 -15 -15 -45 3 -48 29 -2 14
0 12 7 -5 8 -17 16 -22 32 -18z m498 13 c0 -19 -5 -23 -27 -22 -28 1 -40 27
-15 32 7 1 8 0 2 -3 -16 -7 -12 -23 6 -23 9 0 18 9 21 20 7 27 13 25 13 -4z
m2165 -7 c0 -17 -33 -25 -47 -11 -6 6 0 8 16 5 15 -3 26 -1 26 6 0 6 -6 11
-14 11 -8 0 -18 4 -21 10 -4 6 2 7 17 1 13 -4 23 -14 23 -22z m567 -6 c16 5
18 3 9 -6 -15 -15 -45 3 -48 29 -2 14 0 12 7 -5 8 -17 16 -22 32 -18z m-9558
3 c-6 -16 -24 -13 -24 5 0 6 5 7 10 4 6 -3 10 -1 10 6 0 7 2 10 5 7 3 -3 3
-13 -1 -22z m1876 14 c-8 -5 -11 -12 -7 -17 4 -4 16 -2 26 4 13 8 18 8 18 -1
0 -7 -13 -13 -29 -14 -18 -2 -28 3 -28 11 0 17 10 27 24 27 6 0 4 -4 -4 -10z
m263 3 c-18 -7 -16 -21 5 -26 15 -4 15 -5 0 -6 -9 0 -20 4 -23 9 -8 13 3 30
18 29 9 0 9 -2 0 -6z m414 1 c-3 -3 -12 -4 -19 -1 -8 3 -5 6 6 6 11 1 17 -2
13 -5z m1186 -1 c-24 -9 -13 -25 12 -19 14 4 25 3 25 -2 0 -4 -13 -9 -30 -10
-20 -2 -30 2 -30 11 0 17 10 27 24 26 6 0 5 -3 -1 -6z m1650 0 c-18 -7 -16
-21 5 -26 15 -4 15 -5 0 -6 -9 0 -20 4 -23 9 -8 13 3 30 18 29 9 0 9 -2 0 -6z
m240 0 c-18 -7 -16 -21 5 -26 15 -4 15 -5 0 -6 -9 0 -20 4 -23 9 -8 13 3 30
18 29 9 0 9 -2 0 -6z m840 0 c-18 -7 -16 -21 5 -26 15 -4 15 -5 0 -6 -9 0 -20
4 -23 9 -8 13 3 30 18 29 9 0 9 -2 0 -6z m3474 -25 c-3 -7 -5 -2 -5 12 0 14 2
19 5 13 2 -7 2 -19 0 -25z m96 25 c-21 -8 -15 -26 7 -20 11 3 22 2 24 -2 3 -4
-9 -8 -25 -9 -19 -2 -29 2 -29 11 0 17 10 27 24 26 6 0 5 -3 -1 -6z m198 -7
c5 3 9 1 9 -5 0 -5 -4 -13 -10 -16 -5 -3 -10 -4 -10 -1 0 2 -2 10 -3 18 -2 7
-2 10 0 5 3 -4 9 -5 14 -1z m-11681 -6 c0 -5 -5 -10 -11 -10 -5 0 -7 5 -4 10
3 6 8 10 11 10 2 0 4 -4 4 -10z m170 -13 c11 -5 9 -6 -4 -4 -11 1 -21 9 -23
17 -3 10 -2 11 4 4 4 -6 15 -14 23 -17z m625 0 c16 -5 15 -5 -4 -4 -14 1 -26
9 -28 17 -3 10 -2 11 4 4 4 -7 17 -14 28 -17z m465 13 c0 -5 -5 -10 -11 -10
-5 0 -7 5 -4 10 3 6 8 10 11 10 2 0 4 -4 4 -10z m230 -11 c0 -6 -4 -7 -10 -4
-5 3 -10 11 -10 16 0 6 5 7 10 4 6 -3 10 -11 10 -16z m380 -2 c11 -5 9 -6 -4
-4 -11 1 -21 9 -23 17 -3 10 -2 11 4 4 4 -6 15 -14 23 -17z m2645 7 c10 3 14
2 9 -5 -3 -6 -15 -9 -25 -6 -10 3 -20 0 -23 -7 -2 -6 -3 -1 -3 11 1 17 4 19
14 11 7 -5 20 -8 28 -4z m205 -7 c11 -5 9 -6 -4 -4 -11 1 -21 9 -23 17 -3 10
-2 11 4 4 4 -6 15 -14 23 -17z m350 13 c0 -5 -5 -10 -11 -10 -5 0 -7 5 -4 10
3 6 8 10 11 10 2 0 4 -4 4 -10z m177 -12 c-3 -8 -6 -5 -6 6 -1 11 2 17 5 13 3
-3 4 -12 1 -19z m3050 0 c-3 -8 -6 -5 -6 6 -1 11 2 17 5 13 3 -3 4 -12 1 -19z
m2438 -1 c16 -5 15 -5 -4 -4 -14 1 -26 9 -28 17 -3 10 -2 11 4 4 4 -7 17 -14
28 -17z m-10461 2 c3 -3 -8 -6 -24 -7 -17 -1 -30 1 -30 6 0 8 46 9 54 1z m149
-1 c-2 -5 -10 -8 -18 -8 -8 0 -16 3 -18 8 -3 4 5 7 18 7 13 0 21 -3 18 -7z
m2847 2 c0 -5 -2 -10 -4 -10 -3 0 -8 5 -11 10 -3 6 -1 10 4 10 6 0 11 -4 11
-10z m140 0 c0 -5 -2 -10 -4 -10 -3 0 -8 5 -11 10 -3 6 -1 10 4 10 6 0 11 -4
11 -10z m1953 -2 c-2 -5 -10 -8 -18 -8 -8 0 -16 3 -18 8 -3 4 5 7 18 7 13 0
21 -3 18 -7z m3050 0 c-2 -5 -10 -8 -18 -8 -8 0 -16 3 -18 8 -3 4 5 7 18 7 13
0 21 -3 18 -7z m1838 -6 c-7 -2 -18 1 -23 6 -8 8 -4 9 13 5 13 -4 18 -8 10
-11z m1389 8 c0 -5 -4 -10 -10 -10 -5 0 -10 5 -10 10 0 6 5 10 10 10 6 0 10
-4 10 -10z m123 -2 c-2 -5 -10 -8 -18 -8 -8 0 -16 3 -18 8 -3 4 5 7 18 7 13 0
21 -3 18 -7z m-10896 -4 c-3 -3 -12 -4 -19 -1 -8 3 -5 6 6 6 11 1 17 -2 13 -5z
m3130 0 c-3 -3 -12 -4 -19 -1 -8 3 -5 6 6 6 11 1 17 -2 13 -5z m2711 -1 c-10
-2 -26 -2 -35 0 -10 3 -2 5 17 5 19 0 27 -2 18 -5z m545 0 c-7 -2 -19 -2 -25
0 -7 3 -2 5 12 5 14 0 19 -2 13 -5z m254 1 c-3 -3 -12 -4 -19 -1 -8 3 -5 6 6
6 11 1 17 -2 13 -5z m4470 0 c-3 -3 -12 -4 -19 -1 -8 3 -5 6 6 6 11 1 17 -2
13 -5z m-11982 -14 c-3 -5 -14 -10 -23 -9 -14 0 -13 2 3 9 27 11 27 11 20 0z
m1260 0 c-3 -5 -16 -10 -28 -9 -20 1 -20 2 3 9 14 4 26 8 28 9 2 1 0 -3 -3 -9z
m3810 0 c-3 -5 -16 -10 -28 -9 -20 1 -20 2 3 9 14 4 26 8 28 9 2 1 0 -3 -3 -9z
m-5023 -142 c-3 -61 -12 -60 -12 2 0 29 3 50 7 47 3 -4 6 -26 5 -49z m548 3
c0 -46 -1 -48 -27 -47 -14 1 -28 8 -30 16 -4 12 -3 13 5 1 15 -20 44 -5 42 21
-3 33 -1 58 5 58 3 0 5 -22 5 -49z m293 42 c-8 -2 -14 -25 -15 -51 -1 -45 -1
-46 -5 -8 -5 45 1 66 19 65 10 0 10 -2 1 -6z m519 -55 c2 -20 0 -34 -4 -32 -4
3 -7 26 -7 52 1 49 5 42 11 -20z m2610 0 c2 -20 0 -34 -4 -32 -4 3 -7 26 -7
52 1 49 5 42 11 -20z m8250 0 c2 -21 0 -38 -4 -38 -4 0 -7 24 -7 53 1 54 5 49
11 -15z m-8930 0 c2 -20 0 -34 -4 -32 -4 3 -8 24 -7 47 1 47 6 41 11 -15z
m1222 37 c3 -8 1 -15 -4 -15 -6 0 -10 7 -10 15 0 8 2 15 4 15 2 0 6 -7 10 -15z
m2469 -68 c8 -6 7 -7 -3 -4 -16 4 -30 53 -21 77 3 8 7 -3 9 -25 2 -22 9 -44
15 -48z m3200 0 c8 -6 7 -7 -3 -4 -10 2 -15 18 -16 48 -1 44 -1 44 3 4 3 -22
10 -44 16 -48z m-10529 48 c-4 -8 -8 -15 -10 -15 -2 0 -4 7 -4 15 0 8 4 15 10
15 5 0 7 -7 4 -15z m36 5 c0 -5 -2 -10 -4 -10 -3 0 -8 5 -11 10 -3 6 -1 10 4
10 6 0 11 -4 11 -10z m32 -17 c-3 -16 -7 -22 -10 -15 -4 13 4 42 11 42 2 0 2
-12 -1 -27z m46 2 c-3 -3 -9 2 -12 12 -6 14 -5 15 5 6 7 -7 10 -15 7 -18z
m125 17 c-6 -4 -13 -21 -16 -37 -4 -27 -4 -27 -6 8 -1 29 3 37 17 37 11 0 13
-3 5 -8z m155 -38 c-3 -27 -4 -26 -9 8 -3 22 -1 34 4 29 5 -5 7 -21 5 -37z
m29 -6 c-2 -13 -4 -5 -4 17 -1 22 1 32 4 23 2 -10 2 -28 0 -40z m45 17 c-2
-19 -6 -35 -8 -35 -2 0 -4 16 -4 35 0 19 4 35 8 35 4 0 6 -16 4 -35z m295 -17
c-2 -13 -4 -5 -4 17 -1 22 1 32 4 23 2 -10 2 -28 0 -40z m86 37 c-3 -9 -8 -14
-10 -11 -3 3 -2 9 2 15 9 16 15 13 8 -4z m119 -15 c-4 -26 -1 -30 19 -31 21
-1 21 -2 4 -6 -11 -3 -23 -10 -27 -17 -4 -6 -8 10 -8 37 0 26 4 47 8 47 5 0 7
-13 4 -30z m46 -6 c-3 -14 -5 -12 -10 9 -3 19 -2 25 4 19 6 -6 8 -18 6 -28z
m29 -16 c-2 -13 -4 -5 -4 17 -1 22 1 32 4 23 2 -10 2 -28 0 -40z m175 21 c-4
-30 -3 -32 22 -27 18 4 24 2 18 -4 -26 -26 -62 10 -48 48 9 24 13 16 8 -17z
m46 6 c-3 -3 -9 2 -12 12 -6 14 -5 15 5 6 7 -7 10 -15 7 -18z m29 3 c-3 -8 -6
-5 -6 6 -1 11 2 17 5 13 3 -3 4 -12 1 -19z m77 7 c-4 -8 -8 -15 -10 -15 -2 0
-4 7 -4 15 0 8 4 15 10 15 5 0 7 -7 4 -15z m196 11 c0 -3 -4 -8 -10 -11 -5 -3
-10 -1 -10 4 0 6 5 11 10 11 6 0 10 -2 10 -4z m30 -6 c0 -5 -2 -10 -4 -10 -3
0 -8 5 -11 10 -3 6 -1 10 4 10 6 0 11 -4 11 -10z m82 -29 c2 -17 1 -28 -3 -26
-4 3 -9 18 -11 34 -2 17 -1 28 3 26 4 -3 9 -18 11 -34z m1888 35 c0 -3 -4 -8
-10 -11 -5 -3 -10 -1 -10 4 0 6 5 11 10 11 6 0 10 -2 10 -4z m112 -23 c-3 -16
-7 -22 -10 -15 -4 13 4 42 11 42 2 0 2 -12 -1 -27z m46 2 c-3 -3 -9 2 -12 12
-6 14 -5 15 5 6 7 -7 10 -15 7 -18z m29 -27 c-2 -13 -4 -5 -4 17 -1 22 1 32 4
23 2 -10 2 -28 0 -40z m55 15 c-5 -59 -10 -63 -11 -10 -1 26 3 47 7 47 4 0 6
-17 4 -37z m46 -4 c-2 -15 -10 -25 -23 -26 -17 -2 -18 -1 -2 3 15 5 18 13 15
35 -3 18 -1 26 5 20 5 -5 7 -19 5 -32z m34 12 c-3 -24 0 -30 19 -34 23 -5 23
-5 -1 -4 -25 2 -37 25 -26 53 9 23 13 16 8 -15z m98 25 c0 -2 -7 -6 -15 -10
-8 -3 -15 -1 -15 4 0 6 7 10 15 10 8 0 15 -2 15 -4z m23 -11 c-3 -9 -8 -14
-10 -11 -3 3 -2 9 2 15 9 16 15 13 8 -4z m117 5 c0 -5 -2 -10 -4 -10 -3 0 -8
5 -11 10 -3 6 -1 10 4 10 6 0 11 -4 11 -10z m162 -29 c2 -17 1 -28 -3 -26 -4
3 -9 18 -11 34 -2 17 -1 28 3 26 4 -3 9 -18 11 -34z m100 12 c-3 -16 -7 -22
-10 -15 -4 13 4 42 11 42 2 0 2 -12 -1 -27z m88 23 c0 -2 -7 -9 -15 -16 -13
-11 -14 -10 -9 4 5 14 24 23 24 12z m72 -31 c-2 -19 -6 -35 -8 -35 -2 0 -4 16
-4 35 0 19 4 35 8 35 4 0 6 -16 4 -35z m196 10 c-3 -3 -9 2 -12 12 -6 14 -5
15 5 6 7 -7 10 -15 7 -18z m34 -6 c-4 -30 -3 -32 22 -27 18 4 24 2 18 -4 -26
-26 -62 10 -48 48 9 24 13 16 8 -17z m125 -21 c-2 -13 -4 -5 -4 17 -1 22 1 32
4 23 2 -10 2 -28 0 -40z m81 16 c-3 -14 -5 -12 -10 9 -3 19 -2 25 4 19 6 -6 8
-18 6 -28z m34 1 c-2 -19 -6 -35 -8 -35 -2 0 -4 16 -4 35 0 19 4 35 8 35 4 0
6 -16 4 -35z m82 20 c-4 -9 0 -15 9 -15 9 0 19 -4 22 -10 4 -6 -2 -7 -17 -1
-23 8 -38 41 -19 41 6 0 8 -7 5 -15z m36 5 c0 -5 -2 -10 -4 -10 -3 0 -8 5 -11
10 -3 6 -1 10 4 10 6 0 11 -4 11 -10z m1837 -42 c-2 -13 -4 -5 -4 17 -1 22 1
32 4 23 2 -10 2 -28 0 -40z m53 48 c0 -3 -4 -8 -10 -11 -5 -3 -10 -1 -10 4 0
6 5 11 10 11 6 0 10 -2 10 -4z m27 -18 c-3 -8 -6 -5 -6 6 -1 11 2 17 5 13 3
-3 4 -12 1 -19z m105 -5 c-3 -16 -7 -22 -10 -15 -4 13 4 42 11 42 2 0 2 -12
-1 -27z m46 2 c-3 -3 -9 2 -12 12 -6 14 -5 15 5 6 7 -7 10 -15 7 -18z m36 10
c-4 -8 -8 -15 -10 -15 -2 0 -4 7 -4 15 0 8 4 15 10 15 5 0 7 -7 4 -15z m168
-22 c-2 -18 -5 -33 -7 -33 -2 0 -5 15 -7 33 -2 20 1 34 7 34 6 0 9 -14 7 -34z
m116 12 c-3 -3 -9 2 -12 12 -6 14 -5 15 5 6 7 -7 10 -15 7 -18z m80 -21 c-3
-27 -4 -26 -9 8 -3 22 -1 34 4 29 5 -5 7 -21 5 -37z m86 31 c-4 -8 -8 -15 -10
-15 -2 0 -4 7 -4 15 0 8 4 15 10 15 5 0 7 -7 4 -15z m178 -24 c2 -17 1 -28 -3
-26 -4 3 -9 18 -11 34 -2 17 -1 28 3 26 4 -3 9 -18 11 -34z m158 29 c0 -5 -2
-10 -4 -10 -3 0 -8 5 -11 10 -3 6 -1 10 4 10 6 0 11 -4 11 -10z m160 -25 c0
-19 -2 -35 -4 -35 -2 0 -6 16 -8 35 -2 19 0 35 4 35 4 0 8 -16 8 -35z m32 5
c-4 -25 -1 -30 16 -30 11 0 23 5 25 10 3 6 4 5 3 -2 -2 -7 -13 -13 -27 -13
-24 0 -36 23 -25 51 9 23 13 16 8 -16z m46 5 c-3 -3 -9 2 -12 12 -6 14 -5 15
5 6 7 -7 10 -15 7 -18z m80 -21 c-3 -27 -4 -26 -9 8 -3 22 -1 34 4 29 5 -5 7
-21 5 -37z m34 15 c-4 -30 -3 -32 22 -27 18 4 24 2 18 -4 -26 -26 -62 10 -48
48 9 24 13 16 8 -17z m46 6 c-3 -3 -9 2 -12 12 -6 14 -5 15 5 6 7 -7 10 -15 7
-18z m2015 10 c-3 -9 -8 -14 -10 -11 -3 3 -2 9 2 15 9 16 15 13 8 -4z m144 9
c-3 -3 -12 -4 -19 -1 -8 3 -5 6 6 6 11 1 17 -2 13 -5z m25 -25 c-4 -30 -3 -32
22 -27 18 4 24 2 18 -4 -26 -26 -62 10 -48 48 9 24 13 16 8 -17z m46 6 c-3 -3
-9 2 -12 12 -6 14 -5 15 5 6 7 -7 10 -15 7 -18z m36 10 c-4 -8 -8 -15 -10 -15
-2 0 -4 7 -4 15 0 8 4 15 10 15 5 0 7 -7 4 -15z m36 5 c0 -5 -2 -10 -4 -10 -3
0 -8 5 -11 10 -3 6 -1 10 4 10 6 0 11 -4 11 -10z m33 -5 c-3 -9 -8 -14 -10
-11 -3 3 -2 9 2 15 9 16 15 13 8 -4z m104 -37 c-2 -13 -4 -5 -4 17 -1 22 1 32
4 23 2 -10 2 -28 0 -40z m91 6 c-3 -27 -4 -26 -9 8 -3 22 -1 34 4 29 5 -5 7
-21 5 -37z m109 -6 c-2 -13 -4 -5 -4 17 -1 22 1 32 4 23 2 -10 2 -28 0 -40z
m203 42 c0 -5 -2 -10 -4 -10 -3 0 -8 5 -11 10 -3 6 -1 10 4 10 6 0 11 -4 11
-10z m80 0 c0 -5 -2 -10 -4 -10 -3 0 -8 5 -11 10 -3 6 -1 10 4 10 6 0 11 -4
11 -10z m82 -27 c-2 -18 -5 -33 -7 -33 -2 0 -5 15 -7 33 -2 20 1 34 7 34 6 0
9 -14 7 -34z m116 12 c-3 -3 -9 2 -12 12 -6 14 -5 15 5 6 7 -7 10 -15 7 -18z
m80 -21 c-3 -27 -4 -26 -9 8 -3 22 -1 34 4 29 5 -5 7 -21 5 -37z m242 42 c0
-3 -4 -8 -10 -11 -5 -3 -10 -1 -10 4 0 6 5 11 10 11 6 0 10 -2 10 -4z m30 -6
c0 -5 -2 -10 -4 -10 -3 0 -8 5 -11 10 -3 6 -1 10 4 10 6 0 11 -4 11 -10z m80
0 c0 -5 -2 -10 -4 -10 -3 0 -8 5 -11 10 -3 6 -1 10 4 10 6 0 11 -4 11 -10z
m90 6 c0 -3 -4 -8 -10 -11 -5 -3 -10 -1 -10 4 0 6 5 11 10 11 6 0 10 -2 10 -4z
m108 -21 c-3 -3 -9 2 -12 12 -6 14 -5 15 5 6 7 -7 10 -15 7 -18z m79 3 c-3 -8
-6 -5 -6 6 -1 11 2 17 5 13 3 -3 4 -12 1 -19z m74 -10 c-3 -21 -6 -26 -9 -15
-3 17 3 47 11 47 2 0 1 -15 -2 -32z m47 -9 c-2 -15 -10 -25 -23 -26 -17 -2
-18 -1 -2 3 15 5 18 13 15 35 -3 18 -1 26 5 20 5 -5 7 -19 5 -32z m80 -5 c-3
-27 -4 -26 -9 8 -3 22 -1 34 4 29 5 -5 7 -21 5 -37z m-12258 2 c0 -19 -5 -23
-27 -22 -28 1 -40 27 -15 32 7 1 8 0 2 -3 -16 -7 -12 -23 6 -23 9 0 18 9 21
20 7 27 13 25 13 -4z m102 -13 c16 5 18 3 9 -6 -15 -15 -45 3 -48 29 -2 14 0
12 7 -5 8 -17 16 -22 32 -18z m438 13 c0 -19 -5 -23 -27 -22 -28 1 -40 27 -15
32 7 1 8 0 2 -3 -16 -7 -12 -23 6 -23 9 0 18 9 21 20 7 27 13 25 13 -4z m77
-13 c-3 -10 -5 -4 -5 12 0 17 2 24 5 18 2 -7 2 -21 0 -30z m323 2 c-14 -17
-36 -20 -44 -6 -4 5 3 7 15 4 15 -4 22 0 26 18 4 13 8 18 11 11 2 -7 -2 -19
-8 -27z m362 -2 c16 5 18 3 9 -6 -15 -15 -45 3 -48 29 -2 14 0 12 7 -5 8 -17
16 -22 32 -18z m2015 0 c-3 -10 -5 -4 -5 12 0 17 2 24 5 18 2 -7 2 -21 0 -30z
m595 0 c16 5 18 3 9 -6 -15 -15 -45 3 -48 29 -2 14 0 12 7 -5 8 -17 16 -22 32
-18z m398 2 c-14 -17 -36 -20 -44 -6 -4 5 3 7 15 4 15 -4 22 0 26 18 4 13 8
18 11 11 2 -7 -2 -19 -8 -27z m222 -2 c16 5 18 3 9 -6 -15 -15 -45 3 -48 29
-2 14 0 12 7 -5 8 -17 16 -22 32 -18z m335 0 c-3 -10 -5 -4 -5 12 0 17 2 24 5
18 2 -7 2 -21 0 -30z m2445 0 c16 5 18 3 9 -6 -15 -15 -45 3 -48 29 -2 14 0
12 7 -5 8 -17 16 -22 32 -18z m500 0 c16 5 18 3 9 -6 -15 -15 -45 3 -48 29 -2
14 0 12 7 -5 8 -17 16 -22 32 -18z m3028 13 c0 -19 -5 -23 -27 -22 -28 1 -40
27 -15 32 7 1 8 0 2 -3 -16 -7 -12 -23 6 -23 9 0 18 9 21 20 7 27 13 25 13 -4z
m77 -13 c-3 -10 -5 -4 -5 12 0 17 2 24 5 18 2 -7 2 -21 0 -30z m415 0 c16 5
18 3 9 -6 -15 -15 -45 3 -48 29 -2 14 0 12 7 -5 8 -17 16 -22 32 -18z m422 -3
c8 0 17 6 19 13 4 9 6 9 6 -1 1 -19 -27 -26 -44 -12 -8 7 -15 20 -14 29 0 11
3 9 9 -6 5 -13 16 -23 24 -23z m153 18 c-3 -8 -6 -5 -6 6 -1 11 2 17 5 13 3
-3 4 -12 1 -19z m28 -1 c0 -7 11 -12 23 -11 16 0 20 -2 12 -10 -14 -14 -44 4
-49 30 -2 10 1 15 5 11 5 -5 9 -14 9 -20z m405 -1 c0 -19 -5 -23 -27 -22 -28
1 -40 27 -15 32 7 1 8 0 2 -3 -16 -7 -12 -23 6 -23 9 0 18 9 21 20 7 27 13 25
13 -4z m-12505 4 c3 -6 -1 -7 -9 -4 -18 7 -21 14 -7 14 6 0 13 -4 16 -10z
m1370 0 c3 -6 -1 -7 -9 -4 -18 7 -21 14 -7 14 6 0 13 -4 16 -10z m238 3 c-18
-7 -16 -21 5 -26 15 -4 15 -5 0 -6 -9 0 -20 4 -23 9 -8 13 3 30 18 29 9 0 9
-2 0 -6z m2615 0 c-10 -2 -18 -8 -18 -13 0 -5 8 -11 18 -13 15 -4 15 -5 0 -6
-19 -1 -32 14 -23 29 3 6 14 9 23 9 15 -1 15 -2 0 -6z m3589 1 c-3 -3 -12 -4
-19 -1 -8 3 -5 6 6 6 11 1 17 -2 13 -5z m634 -28 c-6 -14 -16 -26 -23 -26 -11
0 -10 2 0 8 8 5 10 16 6 27 -5 13 -4 16 4 11 7 -4 12 -2 12 5 0 7 2 10 5 7 3
-3 1 -17 -4 -32z m2682 27 c-21 -8 -15 -26 7 -20 11 3 22 2 24 -2 3 -4 -9 -8
-25 -9 -19 -2 -29 2 -29 11 0 17 10 27 24 26 6 0 5 -3 -1 -6z m630 0 c-21 -8
-15 -26 7 -20 11 3 22 2 24 -2 3 -4 -9 -8 -25 -9 -19 -2 -29 2 -29 11 0 17 10
27 24 26 6 0 5 -3 -1 -6z m502 -3 c3 -6 -1 -7 -9 -4 -18 7 -21 14 -7 14 6 0
13 -4 16 -10z m-7330 -23 c16 -5 15 -5 -4 -4 -14 1 -26 9 -28 17 -3 10 -2 11
4 4 4 -7 17 -14 28 -17z m2146 0 c-10 -9 -11 -8 -5 6 3 10 9 15 12 12 3 -3 0
-11 -7 -18z m4159 13 c0 -5 -5 -10 -11 -10 -5 0 -7 5 -4 10 3 6 8 10 11 10 2
0 4 -4 4 -10z m-11249 -18 c-7 -2 -18 1 -23 6 -8 8 -4 9 13 5 13 -4 18 -8 10
-11z m94 8 c-3 -5 -16 -10 -28 -9 -20 1 -20 2 3 9 14 4 26 8 28 9 2 1 0 -3 -3
-9z m1206 -8 c-7 -2 -18 1 -23 6 -8 8 -4 9 13 5 13 -4 18 -8 10 -11z m75 0
c-10 -2 -22 0 -28 6 -6 6 0 7 19 4 21 -5 23 -7 9 -10z m2329 8 c-3 -5 -16 -10
-28 -9 -20 1 -20 2 3 9 14 4 26 8 28 9 2 1 0 -3 -3 -9z m311 -8 c-10 -2 -22 0
-28 6 -6 6 0 7 19 4 21 -5 23 -7 9 -10z m399 8 c-3 -5 -16 -10 -28 -9 -20 1
-20 2 3 9 14 4 26 8 28 9 2 1 0 -3 -3 -9z m691 -8 c-10 -2 -22 0 -28 6 -6 6 0
7 19 4 21 -5 23 -7 9 -10z m2079 8 c-3 -5 -16 -10 -28 -9 -20 1 -20 2 3 9 14
4 26 8 28 9 2 1 0 -3 -3 -9z m56 -8 c-7 -2 -18 1 -23 6 -8 8 -4 9 13 5 13 -4
18 -8 10 -11z m450 0 c-7 -2 -18 1 -23 6 -8 8 -4 9 13 5 13 -4 18 -8 10 -11z
m2755 0 c-10 -2 -22 0 -28 6 -6 6 0 7 19 4 21 -5 23 -7 9 -10z m257 6 c-2 -5
-10 -8 -18 -8 -8 0 -16 3 -18 8 -3 4 5 7 18 7 13 0 21 -3 18 -7z m63 -6 c-10
-2 -22 0 -28 6 -6 6 0 7 19 4 21 -5 23 -7 9 -10z m557 6 c-2 -5 -10 -8 -18 -8
-8 0 -16 3 -18 8 -3 4 5 7 18 7 13 0 21 -3 18 -7z m757 -4 c0 -2 -11 -4 -25
-4 -14 0 -25 4 -25 9 0 4 11 6 25 3 14 -2 25 -6 25 -8z m181 -2 c-7 -2 -18 1
-23 6 -8 8 -4 9 13 5 13 -4 18 -8 10 -11z m-4434 2 c-3 -3 -12 -4 -19 -1 -8 3
-5 6 6 6 11 1 17 -2 13 -5z m-7271 -22 c-10 -2 -22 0 -28 6 -6 6 0 7 19 4 21
-5 23 -7 9 -10z m10689 8 c-3 -5 -16 -10 -28 -9 -20 1 -20 2 3 9 14 4 26 8 28
9 2 1 0 -3 -3 -9z m-11216 -142 c-2 -48 -2 -49 -8 -18 -6 33 -3 70 5 70 2 0 3
-24 3 -52z m263 -10 c2 -21 0 -38 -4 -38 -4 0 -7 24 -7 53 1 54 5 49 11 -15z
m10471 -31 c8 -6 7 -7 -3 -4 -10 2 -15 18 -16 48 -1 44 -1 44 3 4 3 -22 10
-44 16 -48z m-10780 48 c-3 -9 -8 -14 -10 -11 -3 3 -2 9 2 15 9 16 15 13 8 -4z
m79 -16 c-4 -30 -3 -32 22 -27 18 4 24 2 18 -4 -26 -26 -62 10 -48 48 9 24 13
16 8 -17z m46 6 c-3 -3 -9 2 -12 12 -6 14 -5 15 5 6 7 -7 10 -15 7 -18z m104
-6 c-4 -30 -3 -32 22 -27 18 4 24 2 18 -4 -26 -26 -62 10 -48 48 9 24 13 16 8
-17z m238 21 c0 -5 -2 -10 -4 -10 -3 0 -8 5 -11 10 -3 6 -1 10 4 10 6 0 11 -4
11 -10z m82 -27 c-2 -18 -5 -33 -7 -33 -2 0 -5 15 -7 33 -2 20 1 34 7 34 6 0
9 -14 7 -34z m196 -9 c-3 -27 -4 -26 -9 8 -3 22 -1 34 4 29 5 -5 7 -21 5 -37z
m6229 -6 c-2 -13 -4 -5 -4 17 -1 22 1 32 4 23 2 -10 2 -28 0 -40z m91 6 c-3
-27 -4 -26 -9 8 -3 22 -1 34 4 29 5 -5 7 -21 5 -37z m109 -6 c-2 -13 -4 -5 -4
17 -1 22 1 32 4 23 2 -10 2 -28 0 -40z m125 13 c2 -17 1 -28 -3 -26 -4 3 -9
18 -11 34 -2 17 -1 28 3 26 4 -3 9 -18 11 -34z m33 10 c0 -16 -3 -27 -7 -24
-13 7 -7 53 6 53 1 0 1 -13 1 -29z m43 -13 c-2 -32 -8 -44 -22 -46 -10 -2 -22
0 -28 6 -6 6 -1 8 16 5 24 -5 25 -3 23 36 -2 23 1 41 6 41 4 0 7 -19 5 -42z
m80 17 c-3 -3 -9 2 -12 12 -6 14 -5 15 5 6 7 -7 10 -15 7 -18z m92 19 c0 -8
-19 -13 -24 -6 -3 5 1 9 9 9 8 0 15 -2 15 -3z m28 -40 c-3 -27 -4 -26 -9 8 -3
22 -1 34 4 29 5 -5 7 -21 5 -37z m34 15 c-4 -30 -3 -32 22 -27 18 4 24 2 18
-4 -26 -26 -62 10 -48 48 9 24 13 16 8 -17z m46 6 c-3 -3 -9 2 -12 12 -6 14
-5 15 5 6 7 -7 10 -15 7 -18z m29 -27 c-2 -13 -4 -5 -4 17 -1 22 1 32 4 23 2
-10 2 -28 0 -40z m2758 23 c0 -16 -3 -27 -7 -24 -13 7 -7 53 6 53 1 0 1 -13 1
-29z m43 -13 c-2 -32 -8 -44 -22 -46 -10 -2 -22 0 -28 6 -6 6 -1 8 16 5 24 -5
25 -3 23 36 -2 23 1 41 6 41 4 0 7 -19 5 -42z m62 38 c0 -2 -7 -7 -16 -10 -8
-3 -12 -2 -9 4 6 10 25 14 25 6z m22 -26 c-4 -25 -1 -30 16 -30 11 0 23 5 25
10 3 6 4 5 3 -2 -2 -7 -13 -13 -27 -13 -24 0 -36 23 -25 51 9 23 13 16 8 -16z
m46 5 c-3 -3 -9 2 -12 12 -6 14 -5 15 5 6 7 -7 10 -15 7 -18z m64 3 c-7 -7
-12 -8 -12 -2 0 14 12 26 19 19 2 -3 -1 -11 -7 -17z m148 18 c0 -3 -4 -8 -10
-11 -5 -3 -10 -1 -10 4 0 6 5 11 10 11 6 0 10 -2 10 -4z m30 -11 c0 -8 -2 -15
-4 -15 -2 0 -6 7 -10 15 -3 8 -1 15 4 15 6 0 10 -7 10 -15z m-10488 -42 c16 5
18 3 9 -6 -15 -15 -45 3 -48 29 -2 14 0 12 7 -5 8 -17 16 -22 32 -18z m280 0
c16 5 18 3 9 -6 -15 -15 -45 3 -48 29 -2 14 0 12 7 -5 8 -17 16 -22 32 -18z
m6790 0 c16 5 18 3 9 -6 -15 -15 -45 3 -48 29 -2 14 0 12 7 -5 8 -17 16 -22
32 -18z m295 0 c-3 -10 -5 -4 -5 12 0 17 2 24 5 18 2 -7 2 -21 0 -30z m-7553
3 c-6 -16 -24 -13 -24 5 0 6 5 7 10 4 6 -3 10 -1 10 6 0 7 2 10 5 7 3 -3 3
-13 -1 -22z m7093 18 c-3 -3 -12 -4 -19 -1 -8 3 -5 6 6 6 11 1 17 -2 13 -5z
m-7257 -27 c11 -5 9 -6 -4 -4 -11 1 -21 9 -23 17 -3 10 -2 11 4 4 4 -6 15 -14
23 -17z m10646 -4 c-10 -10 -19 5 -10 18 6 11 8 11 12 0 2 -7 1 -15 -2 -18z
m46 5 c-7 -7 -12 -8 -12 -2 0 14 12 26 19 19 2 -3 -1 -11 -7 -17z m-10252 -2
c-6 -6 -18 -5 -32 1 -21 10 -21 10 9 9 19 -1 28 -5 23 -10z m6684 3 c3 -3 -8
-6 -24 -7 -17 -1 -30 1 -30 6 0 8 46 9 54 1z m641 -7 c-3 -3 -11 0 -18 7 -9
10 -8 11 6 5 10 -3 15 -9 12 -12z m-508 2 c-3 -3 -12 -4 -19 -1 -8 3 -5 6 6 6
11 1 17 -2 13 -5z m-6543 -860 c19 -7 21 -45 4 -62 -9 -9 -9 -15 0 -24 9 -9
12 -9 12 1 0 7 6 11 13 9 6 -3 12 -19 12 -36 0 -28 -3 -31 -37 -34 -67 -6
-106 26 -74 61 9 10 13 26 9 39 -9 38 21 61 61 46z m244 -13 c3 -8 -3 -12 -14
-11 -11 1 -36 2 -56 1 -31 -1 -38 -5 -38 -21 0 -16 7 -20 30 -20 17 0 30 -4
30 -10 0 -5 -13 -10 -30 -10 -27 0 -30 -3 -30 -30 0 -20 -5 -30 -15 -30 -12 0
-15 14 -15 70 l0 69 58 4 c72 4 75 3 80 -12z m3202 4 c0 -8 -7 -15 -15 -15 -8
0 -15 7 -15 15 0 8 7 15 15 15 8 0 15 -7 15 -15z m3218 -3 c2 -7 -3 -12 -12
-12 -9 0 -16 7 -16 16 0 17 22 14 28 -4z m350 0 c2 -7 -6 -12 -17 -12 -21 0
-27 11 -14 24 9 9 26 2 31 -12z m2817 -2 c24 -26 12 -37 -20 -20 -20 10 -28
11 -37 2 -9 -9 -2 -16 29 -28 44 -17 56 -34 46 -60 -15 -40 -103 -34 -111 9
-4 21 23 23 32 2 3 -8 15 -15 26 -15 33 0 20 32 -17 42 -42 11 -54 45 -23 70
29 23 53 23 75 -2z m290 9 c10 -15 -1 -23 -20 -15 -9 3 -13 10 -10 16 8 13 22
13 30 -1z m317 -11 c15 -15 18 -23 9 -26 -7 -2 -18 1 -24 7 -16 16 -47 14 -47
-3 0 -8 12 -17 27 -21 36 -9 53 -23 53 -45 0 -45 -71 -58 -103 -19 -18 22 -18
24 -2 27 9 2 22 -4 29 -14 8 -10 20 -15 30 -11 26 10 19 23 -24 40 -32 12 -40
20 -40 41 0 46 55 61 92 24z m168 7 c0 -8 -7 -15 -15 -15 -8 0 -15 7 -15 15 0
8 7 15 15 15 8 0 15 -7 15 -15z m-11290 -26 c0 -27 3 -30 28 -27 23 3 27 7 24
31 -3 22 1 27 17 27 19 0 21 -6 21 -70 0 -62 -2 -70 -19 -70 -15 0 -19 6 -17
30 2 27 -1 30 -26 30 -24 0 -28 -4 -28 -30 0 -20 -5 -30 -15 -30 -12 0 -15 14
-15 70 0 56 3 70 15 70 10 0 15 -10 15 -31z m360 -23 c0 -30 3 -61 6 -70 4
-11 0 -16 -14 -16 -25 0 -29 11 -30 83 0 50 2 57 19 57 16 0 19 -7 19 -54z
m120 35 c0 -14 5 -18 20 -14 32 8 50 -15 50 -63 0 -32 -4 -44 -15 -44 -11 0
-15 11 -15 38 0 21 -3 42 -7 45 -13 14 -33 -16 -33 -50 0 -34 0 -34 -42 -31
-41 3 -43 5 -46 38 -2 19 -8 40 -14 47 -7 9 -5 17 5 28 18 17 37 20 37 5 0 -5
7 -10 15 -10 8 0 15 7 15 15 0 8 7 15 15 15 8 0 15 -9 15 -19z m3080 9 c0 -5
-16 -10 -35 -10 -28 0 -35 -4 -35 -20 0 -16 7 -20 35 -20 19 0 35 -4 35 -10 0
-5 -16 -10 -35 -10 -28 0 -35 -4 -35 -20 0 -17 7 -20 40 -20 22 0 40 -4 40
-10 0 -5 -25 -10 -55 -10 l-55 0 0 70 0 70 50 0 c28 0 50 -4 50 -10z m120 -60
l0 -70 -43 0 c-49 0 -67 13 -67 50 0 40 22 64 53 58 21 -4 27 -1 27 13 0 11 7
19 15 19 12 0 15 -14 15 -70z m3345 60 c-3 -5 -19 -10 -36 -10 -22 0 -29 -5
-29 -20 0 -16 7 -20 30 -20 17 0 30 -4 30 -10 0 -5 -13 -10 -30 -10 -27 0 -30
-3 -30 -30 0 -23 -5 -30 -19 -30 -16 0 -18 9 -20 70 l-2 70 56 0 c35 0 54 -4
50 -10z m365 -50 c0 -33 4 -60 10 -60 6 0 10 -5 10 -11 0 -6 -10 -9 -22 -7
-21 3 -23 9 -26 71 -2 55 0 67 13 67 12 0 15 -13 15 -60z m202 3 l3 -58 36 -3
36 -3 -1 43 c-1 39 1 43 22 43 13 0 28 8 33 18 11 18 59 24 59 7 0 -5 -8 -10
-17 -10 -15 0 -14 -2 3 -14 12 -9 23 -11 29 -5 13 13 59 11 73 -3 7 -7 12 -22
12 -35 0 -20 -5 -23 -36 -23 -22 0 -33 -4 -29 -11 4 -6 20 -7 38 -3 28 6 30 5
18 -10 -16 -19 -62 -21 -79 -4 -7 7 -12 25 -12 40 0 18 -5 28 -15 28 -11 0
-15 -11 -15 -40 0 -29 -4 -40 -15 -40 -11 0 -15 11 -15 40 0 22 -4 40 -10 40
-5 0 -10 -18 -10 -40 l0 -40 -70 0 -70 0 0 70 c0 54 3 70 15 70 10 0 15 -15
17 -57z m3368 -3 c0 -33 4 -60 10 -60 6 0 10 -4 10 -9 0 -5 -35 -9 -77 -8 -76
2 -78 3 -78 27 0 17 7 26 24 30 14 3 26 11 29 18 5 15 -3 15 -28 0 -24 -15
-37 -4 -20 17 15 18 66 20 76 3 4 -7 11 -28 15 -48 6 -29 7 -25 8 28 1 48 4
62 16 62 12 0 15 -13 15 -60z m220 23 l0 -36 23 21 c14 13 36 22 55 22 l32 0
0 -55 c0 -55 0 -55 -31 -55 -20 0 -38 8 -50 23 l-19 22 -6 -22 c-3 -13 -13
-23 -20 -23 -11 0 -14 17 -14 70 0 56 3 70 15 70 11 0 15 -11 15 -37z m160
-23 c0 -33 4 -60 10 -60 6 0 10 27 10 60 0 47 3 60 15 60 12 0 15 -13 15 -60
0 -33 4 -60 10 -60 6 0 10 -4 10 -10 0 -5 -21 -8 -47 -7 l-48 2 -3 68 c-2 55
0 67 13 67 12 0 15 -13 15 -60z m-10360 40 c0 -5 7 -10 15 -10 8 0 15 -4 15
-10 0 -5 -7 -10 -15 -10 -10 0 -15 -11 -15 -35 0 -24 5 -35 15 -35 8 0 15 -5
15 -11 0 -6 -12 -9 -27 -7 -25 3 -28 7 -31 46 -4 56 -22 54 -22 -3 0 -33 -4
-45 -15 -45 -15 0 -17 7 -19 73 -1 28 3 32 27 35 15 2 27 8 27 13 0 5 7 9 15
9 8 0 15 -4 15 -10z m3082 -2 c2 -6 18 -11 36 -10 l32 1 0 -55 c0 -41 -4 -54
-15 -54 -11 0 -15 12 -15 45 0 38 -3 45 -20 45 -16 0 -20 -7 -20 -30 0 -18 6
-33 15 -36 25 -10 17 -26 -12 -22 -25 3 -29 8 -34 53 -3 28 -4 56 -1 63 5 15
29 16 34 0z m-3874 -20 c7 -7 12 -22 12 -35 0 -20 -5 -23 -36 -23 -22 0 -33
-4 -29 -11 4 -6 20 -7 38 -3 28 6 30 5 18 -10 -16 -19 -62 -21 -79 -4 -7 7
-12 26 -12 43 0 38 16 55 50 55 14 0 31 -5 38 -12z m109 0 c6 -7 13 -32 16
-55 l5 -41 -52 1 c-44 2 -51 5 -54 24 -2 17 5 24 33 33 24 8 33 16 27 22 -6 6
-17 5 -30 -3 -25 -16 -40 -5 -22 16 15 18 64 20 77 3z m811 0 c18 -15 16 -98
-3 -98 -11 0 -15 11 -15 39 0 24 -5 41 -14 44 -20 8 -26 -2 -26 -45 0 -27 -4
-38 -15 -38 -11 0 -15 13 -15 54 l0 54 38 0 c20 0 43 -5 50 -10z m110 0 c7 -7
12 -22 12 -35 0 -20 -5 -23 -36 -23 -22 0 -33 -4 -29 -11 4 -6 20 -7 38 -3 28
6 30 5 18 -10 -16 -19 -62 -21 -79 -4 -7 7 -12 26 -12 43 0 38 16 55 50 55 14
0 31 -5 38 -12z m110 -10 c4 -21 -24 -25 -31 -5 -3 8 -8 9 -16 1 -8 -7 1 -15
31 -28 24 -9 51 -21 60 -27 23 -12 38 -12 38 1 0 6 -9 10 -19 10 -31 0 -53 28
-41 51 13 23 62 26 80 4 17 -21 4 -32 -20 -17 -25 15 -33 15 -28 0 3 -7 15
-15 29 -18 17 -4 24 -13 24 -30 0 -21 -5 -26 -33 -28 -18 -2 -40 2 -48 9 -11
9 -18 9 -26 1 -18 -18 -78 -15 -85 4 -3 9 0 20 7 24 8 5 9 9 1 14 -15 10 -14
43 2 50 26 11 72 1 75 -16z m2392 -17 c0 -42 16 -63 31 -40 5 8 9 29 9 47 0
22 5 32 15 32 12 0 15 -13 15 -55 l0 -55 -44 0 c-49 0 -56 8 -56 71 0 28 4 39
15 39 11 0 15 -11 15 -39z m170 24 c18 -21 4 -32 -21 -17 -25 16 -39 8 -39
-23 0 -31 14 -39 39 -23 25 15 39 4 21 -17 -15 -18 -61 -20 -78 -3 -7 7 -12
26 -12 43 0 17 5 36 12 43 17 17 63 15 78 -3z m108 -2 c5 -10 12 -35 15 -56
l6 -38 -52 3 c-48 3 -52 5 -52 28 0 17 7 26 24 30 14 3 26 11 29 18 5 15 -3
15 -28 0 -24 -15 -37 -4 -20 17 17 21 67 19 78 -2z m236 1 c18 -18 20 -47 6
-75 -7 -13 -21 -19 -45 -19 -24 0 -38 6 -45 19 -23 45 -1 91 45 91 13 0 31 -7
39 -16z m116 -10 c6 -14 10 -39 10 -55 0 -22 -5 -29 -19 -29 -16 0 -20 8 -23
43 -2 23 -7 42 -13 42 -5 0 -11 -19 -13 -42 -2 -29 -8 -43 -18 -43 -10 0 -14
14 -14 53 l0 54 40 1 c35 2 42 -2 50 -24z m2766 14 c4 -7 11 -28 15 -48 7 -34
7 -34 8 11 l1 47 68 -1 c37 0 73 -4 80 -10 18 -14 16 -97 -2 -97 -10 0 -16 13
-18 40 -2 22 -7 40 -13 40 -5 0 -11 -18 -13 -40 -3 -32 -7 -40 -22 -40 -16 0
-19 7 -18 33 1 19 -2 40 -7 46 -11 19 -25 -6 -25 -47 l0 -33 -67 3 c-65 3 -68
4 -68 28 0 17 7 26 24 30 14 3 26 11 29 18 5 15 -3 15 -28 0 -24 -15 -37 -4
-20 17 15 18 66 20 76 3z m234 -43 c0 -65 -23 -78 -34 -20 -8 43 0 75 20 75
10 0 14 -14 14 -55z m95 15 l12 -35 12 38 c7 20 19 37 27 37 18 0 17 -2 -9
-75 -17 -46 -27 -61 -45 -63 -22 -3 -32 13 -11 20 7 2 3 23 -10 58 -25 66 -25
62 -4 58 9 -2 22 -19 28 -38z m3198 20 c13 -19 13 -19 30 0 21 25 60 26 83 3
17 -17 17 -18 0 -21 -10 -2 -23 1 -29 7 -14 14 -37 -5 -37 -31 0 -21 32 -38
38 -20 2 7 12 12 23 12 17 0 18 -3 9 -20 -15 -27 -75 -28 -92 -1 -12 20 -12
20 -26 0 -15 -21 -61 -26 -80 -7 -7 7 -12 26 -12 43 0 17 5 36 12 43 19 19 65
14 81 -8z m167 -35 c0 -42 -3 -55 -15 -55 -8 0 -16 8 -17 18 -7 85 -6 92 18
92 10 0 14 -14 14 -55z m690 40 c18 -21 3 -32 -22 -16 -13 8 -24 9 -30 3 -6
-6 3 -14 27 -22 28 -9 35 -16 33 -33 -2 -18 -11 -23 -44 -25 -32 -2 -43 1 -48
14 -9 24 1 30 24 16 23 -14 40 -16 40 -3 0 5 -14 11 -30 15 -35 6 -48 29 -30
51 16 19 64 19 80 0z m-11825 -185 c3 -5 12 -7 20 -4 20 8 30 -22 15 -42 -20
-23 1 -39 30 -24 26 14 38 5 41 -30 5 -54 1 -60 -40 -60 -49 0 -66 18 -45 48
14 20 14 23 -1 28 -8 4 -22 1 -30 -6 -23 -19 -43 4 -42 48 1 24 6 39 16 44 23
10 29 9 36 -2z m7028 -28 c21 -22 27 -38 27 -74 0 -52 -8 -58 -75 -58 -80 0
-102 66 -43 127 39 40 56 41 91 5z m3457 8 c15 -28 -4 -60 -35 -60 -14 0 -29
8 -35 20 -15 28 4 60 35 60 14 0 29 -8 35 -20z m50 1 c12 -23 5 -47 -16 -55
-17 -7 -18 6 -2 22 9 9 9 15 0 24 -14 14 -16 28 -2 28 5 0 14 -9 20 -19z
m-6975 -13 c40 -19 45 -26 45 -55 0 -37 -19 -46 -21 -10 -1 17 -3 16 -10 -9
-7 -24 -16 -33 -37 -36 -45 -6 -77 5 -80 31 -2 12 -10 25 -18 28 -34 13 4 51
73 72 1 1 23 -9 48 -21z m6943 -80 c14 -14 16 -48 3 -48 -5 0 -11 10 -13 23
-2 18 -10 23 -41 25 -33 3 -38 0 -49 -25 -9 -23 -12 -24 -15 -10 -3 10 1 24 7
32 15 18 91 20 108 3z m56 -4 c9 -24 7 -44 -4 -44 -5 0 -10 9 -10 20 0 11 -4
20 -10 20 -5 0 -10 5 -10 10 0 16 27 11 34 -6z m-10197 -14 c3 -10 2 -11 -4
-4 -4 7 -17 14 -28 17 -16 5 -15 5 4 4 14 -1 26 -9 28 -17z m855 -32 c-3 -61
-12 -60 -12 2 0 29 3 50 7 47 3 -4 6 -26 5 -49z m480 6 c-2 -55 -12 -54 -12 1
0 27 3 45 7 42 3 -4 6 -23 5 -43z m320 -6 c-3 -61 -12 -60 -12 2 0 29 3 50 7
47 3 -4 6 -26 5 -49z m1818 33 c0 -4 -7 -8 -15 -8 -16 0 -20 9 -9 20 8 8 24
-1 24 -12z m99 -33 c-2 -48 -2 -49 -8 -18 -6 33 -3 70 5 70 2 0 3 -24 3 -52z
m3372 35 c12 -16 12 -17 -1 -7 -8 6 -22 14 -30 17 -13 5 -12 6 1 6 9 1 23 -7
30 -16z m509 -30 c-4 -42 -5 -44 -8 -15 -3 30 2 62 10 62 2 0 1 -21 -2 -47z
m492 -15 c2 -21 0 -38 -4 -38 -4 0 -7 24 -7 53 1 54 5 49 11 -15z m265 30 c-3
-7 -5 -2 -5 12 0 14 2 19 5 13 2 -7 2 -19 0 -25z m-6610 0 c-3 -8 -6 -5 -6 6
-1 11 2 17 5 13 3 -3 4 -12 1 -19z m5760 -15 c-3 -10 -5 -4 -5 12 0 17 2 24 5
18 2 -7 2 -21 0 -30z m4346 -46 c8 -6 7 -7 -3 -4 -10 2 -15 18 -16 48 -1 44
-1 44 3 4 3 -22 10 -44 16 -48z m452 63 c3 -5 1 -10 -4 -10 -6 0 -11 5 -11 10
0 6 2 10 4 10 3 0 8 -4 11 -10z m-12078 -52 c-2 -13 -4 -5 -4 17 -1 22 1 32 4
23 2 -10 2 -28 0 -40z m113 42 c0 -5 -2 -10 -4 -10 -3 0 -8 5 -11 10 -3 6 -1
10 4 10 6 0 11 -4 11 -10z m82 -24 c2 -19 1 -33 -3 -30 -9 5 -17 64 -8 64 4 0
9 -15 11 -34z m48 30 c0 -3 -4 -8 -10 -11 -5 -3 -10 -1 -10 4 0 6 5 11 10 11
6 0 10 -2 10 -4z m110 -6 c0 -5 -2 -10 -4 -10 -3 0 -8 5 -11 10 -3 6 -1 10 4
10 6 0 11 -4 11 -10z m32 -19 c-3 -24 0 -30 19 -34 23 -5 23 -5 -1 -4 -25 2
-37 25 -26 53 9 23 13 16 8 -15z m46 4 c-3 -3 -9 2 -12 12 -6 14 -5 15 5 6 7
-7 10 -15 7 -18z m75 18 c-7 -2 -14 -17 -14 -31 -1 -18 -3 -21 -6 -9 -6 24 3
47 19 46 10 0 10 -2 1 -6z m35 -34 c-2 -15 -10 -25 -23 -26 -17 -2 -18 -1 -2
3 15 5 18 13 15 35 -3 18 -1 26 5 20 5 -5 7 -19 5 -32z m80 -5 c-3 -27 -4 -26
-9 8 -3 22 -1 34 4 29 5 -5 7 -21 5 -37z m74 16 c-4 -26 -1 -30 19 -31 21 -1
21 -2 4 -6 -11 -3 -23 -10 -27 -17 -4 -6 -8 10 -8 37 0 26 4 47 8 47 5 0 7
-13 4 -30z m46 5 c-3 -3 -9 2 -12 12 -6 14 -5 15 5 6 7 -7 10 -15 7 -18z m80
-21 c-3 -27 -4 -26 -9 8 -3 22 -1 34 4 29 5 -5 7 -21 5 -37z m169 -6 c-2 -13
-4 -5 -4 17 -1 22 1 32 4 23 2 -10 2 -28 0 -40z m35 21 c-4 -30 -3 -32 22 -27
18 4 24 2 18 -4 -26 -26 -62 10 -48 48 9 24 13 16 8 -17z m430 -8 c2 -17 1
-28 -3 -26 -4 3 -9 18 -11 34 -2 17 -1 28 3 26 4 -3 9 -18 11 -34z m1990 10
c-2 -19 1 -31 10 -34 9 -3 9 -4 -2 -3 -16 1 -25 29 -16 52 9 23 13 16 8 -15z
m155 -18 c-3 -10 -5 -2 -5 17 0 19 2 27 5 18 2 -10 2 -26 0 -35z m151 22 c-3
-3 -9 2 -12 12 -6 14 -5 15 5 6 7 -7 10 -15 7 -18z m82 21 c0 -2 -7 -9 -15
-16 -13 -11 -14 -10 -9 4 5 14 24 23 24 12z m67 -48 c-2 -13 -4 -5 -4 17 -1
22 1 32 4 23 2 -10 2 -28 0 -40z m155 23 c-3 -24 0 -30 19 -34 23 -5 23 -5 -1
-4 -25 2 -37 25 -26 53 9 23 13 16 8 -15z m178 25 c0 -2 -7 -6 -15 -10 -8 -3
-15 -1 -15 4 0 6 7 10 15 10 8 0 15 -2 15 -4z m68 -42 c-3 -27 -4 -26 -9 8 -3
22 -1 34 4 29 5 -5 7 -21 5 -37z m69 -1 c-3 -10 -5 -2 -5 17 0 19 2 27 5 18 2
-10 2 -26 0 -35z m275 8 c2 -17 1 -28 -3 -26 -4 3 -9 18 -11 34 -2 17 -1 28 3
26 4 -3 9 -18 11 -34z m73 29 c3 -6 -1 -7 -9 -4 -18 7 -21 14 -7 14 6 0 13 -4
16 -10z m77 -29 c2 -17 1 -28 -3 -26 -4 3 -9 18 -11 34 -2 17 -1 28 3 26 4 -3
9 -18 11 -34z m78 29 c0 -5 -2 -10 -4 -10 -3 0 -8 5 -11 10 -3 6 -1 10 4 10 6
0 11 -4 11 -10z m200 -25 c0 -19 -2 -35 -4 -35 -2 0 -6 16 -8 35 -2 19 0 35 4
35 4 0 8 -16 8 -35z m1877 -17 c-2 -13 -4 -5 -4 17 -1 22 1 32 4 23 2 -10 2
-28 0 -40z m83 42 c0 -5 -2 -10 -4 -10 -3 0 -8 5 -11 10 -3 6 -1 10 4 10 6 0
11 -4 11 -10z m160 0 c0 -5 -2 -10 -4 -10 -3 0 -8 5 -11 10 -3 6 -1 10 4 10 6
0 11 -4 11 -10z m60 6 c0 -2 -7 -6 -15 -10 -8 -3 -15 -1 -15 4 0 6 7 10 15 10
8 0 15 -2 15 -4z m208 -32 c-3 -14 -5 -12 -10 9 -3 19 -2 25 4 19 6 -6 8 -18
6 -28z m46 28 c-7 -4 -14 -18 -17 -32 -4 -21 -4 -20 -6 8 -1 24 3 32 17 32 11
0 13 -3 6 -8z m168 -31 c2 -17 1 -28 -3 -26 -4 3 -9 18 -11 34 -2 17 -1 28 3
26 4 -3 9 -18 11 -34z m80 2 c-2 -18 -5 -33 -7 -33 -2 0 -5 15 -7 33 -2 20 1
34 7 34 6 0 9 -14 7 -34z m300 8 c-3 -24 0 -30 19 -34 23 -5 23 -5 -1 -4 -25
2 -37 25 -26 53 9 23 13 16 8 -15z m156 -17 c-3 -27 -4 -26 -9 8 -3 22 -1 34
4 29 5 -5 7 -21 5 -37z m162 36 c0 -5 -2 -10 -4 -10 -3 0 -8 5 -11 10 -3 6 -1
10 4 10 6 0 11 -4 11 -10z m78 -36 c-3 -27 -4 -26 -9 8 -3 22 -1 34 4 29 5 -5
7 -21 5 -37z m35 31 c-3 -9 -8 -14 -10 -11 -3 3 -2 9 2 15 9 16 15 13 8 -4z
m87 11 c0 -3 -4 -8 -10 -11 -5 -3 -10 -1 -10 4 0 6 5 11 10 11 6 0 10 -2 10
-4z m30 -6 c0 -5 -2 -10 -4 -10 -3 0 -8 5 -11 10 -3 6 -1 10 4 10 6 0 11 -4
11 -10z m75 -17 c0 -23 4 -28 22 -27 12 0 19 -4 16 -9 -3 -5 -14 -7 -24 -4
-11 3 -20 -1 -22 -12 -3 -9 -5 5 -6 32 0 26 3 47 7 47 4 0 8 -12 7 -27z m78
12 c-3 -9 -8 -14 -10 -11 -3 3 -2 9 2 15 9 16 15 13 8 -4z m1594 -37 c-2 -13
-4 -5 -4 17 -1 22 1 32 4 23 2 -10 2 -28 0 -40z m91 6 c-3 -27 -4 -26 -9 8 -3
22 -1 34 4 29 5 -5 7 -21 5 -37z m37 19 c0 -23 4 -28 22 -27 12 0 19 -4 16 -9
-3 -5 -14 -7 -24 -4 -11 3 -20 -1 -22 -12 -3 -9 -5 5 -6 32 0 26 3 47 7 47 4
0 8 -12 7 -27z m92 21 c-3 -3 -12 -4 -19 -1 -8 3 -5 6 6 6 11 1 17 -2 13 -5z
m81 -30 c-3 -14 -5 -12 -10 9 -3 19 -2 25 4 19 6 -6 8 -18 6 -28z m112 32 c0
-3 -4 -8 -10 -11 -5 -3 -10 -1 -10 4 0 6 5 11 10 11 6 0 10 -2 10 -4z m30 -6
c0 -5 -2 -10 -4 -10 -3 0 -8 5 -11 10 -3 6 -1 10 4 10 6 0 11 -4 11 -10z m72
-17 c-3 -16 -7 -22 -10 -15 -4 13 4 42 11 42 2 0 2 -12 -1 -27z m168 23 c0 -3
-4 -8 -10 -11 -5 -3 -10 -1 -10 4 0 6 5 11 10 11 6 0 10 -2 10 -4z m30 -31 c0
-19 -2 -35 -4 -35 -2 0 -6 16 -8 35 -2 19 0 35 4 35 4 0 8 -16 8 -35z m90 31
c0 -3 -4 -8 -10 -11 -5 -3 -10 -1 -10 4 0 6 5 11 10 11 6 0 10 -2 10 -4z m32
-33 c-2 -18 -5 -33 -7 -33 -2 0 -5 15 -7 33 -2 20 1 34 7 34 6 0 9 -14 7 -34z
m91 -26 c8 -6 7 -7 -3 -4 -9 2 -16 17 -16 38 -2 31 -1 31 3 4 3 -16 10 -34 16
-38z m64 11 c-2 -13 -4 -5 -4 17 -1 22 1 32 4 23 2 -10 2 -28 0 -40z m80 0
c-2 -13 -4 -5 -4 17 -1 22 1 32 4 23 2 -10 2 -28 0 -40z m36 37 c-3 -9 -8 -14
-10 -11 -3 3 -2 9 2 15 9 16 15 13 8 -4z m119 -24 c2 -17 1 -28 -3 -26 -4 3
-9 18 -11 34 -2 17 -1 28 3 26 4 -3 9 -18 11 -34z m208 35 c0 -3 -4 -8 -10
-11 -5 -3 -10 -1 -10 4 0 6 5 11 10 11 6 0 10 -2 10 -4z m30 -6 c0 -5 -2 -10
-4 -10 -3 0 -8 5 -11 10 -3 6 -1 10 4 10 6 0 11 -4 11 -10z m102 -25 c-2 -19
-6 -35 -8 -35 -2 0 -4 16 -4 35 0 19 4 35 8 35 4 0 6 -16 4 -35z m46 -11 c-3
-27 -4 -26 -9 8 -3 22 -1 34 4 29 5 -5 7 -21 5 -37z m34 17 c-2 -19 1 -31 10
-34 9 -3 9 -4 -2 -3 -16 1 -25 29 -16 52 9 23 13 16 8 -15z m46 4 c-3 -3 -9 2
-12 12 -6 14 -5 15 5 6 7 -7 10 -15 7 -18z m114 3 c-7 -7 -12 -8 -12 -2 0 14
12 26 19 19 2 -3 -1 -11 -7 -17z m45 0 c-3 -8 -6 -5 -6 6 -1 11 2 17 5 13 3
-3 4 -12 1 -19z m126 14 c-6 -4 -13 -21 -16 -37 -4 -27 -4 -27 -6 8 -1 29 3
37 17 37 11 0 13 -3 5 -8z m67 -7 c-10 -12 -10 -18 1 -32 13 -16 12 -17 -3 -5
-9 8 -22 11 -28 7 -19 -12 -10 7 13 26 27 22 34 24 17 4z m81 -17 c-3 -21 -6
-26 -9 -15 -3 17 3 47 11 47 2 0 1 -15 -2 -32z m-9096 2 c7 0 15 5 17 10 2 6
9 -4 15 -22 11 -28 10 -30 -1 -15 -15 19 -56 23 -56 5 0 -6 -2 -9 -5 -7 -2 3
-1 16 2 29 4 14 8 19 11 12 2 -6 10 -12 17 -12z m-3458 4 c-3 -3 -12 -4 -19
-1 -8 3 -5 6 6 6 11 1 17 -2 13 -5z m175 -31 c16 5 18 3 9 -6 -15 -15 -45 3
-48 29 -2 14 0 12 7 -5 8 -17 16 -22 32 -18z m240 0 c16 5 18 3 9 -6 -15 -15
-45 3 -48 29 -2 14 0 12 7 -5 8 -17 16 -22 32 -18z m623 6 c0 -8 -10 -15 -22
-17 -13 -2 -23 1 -23 6 0 6 9 8 20 5 11 -3 20 0 20 6 0 6 -6 11 -14 11 -8 0
-18 4 -21 10 -4 6 2 7 17 1 13 -4 23 -15 23 -22z m662 -6 c-3 -10 -5 -4 -5 12
0 17 2 24 5 18 2 -7 2 -21 0 -30z m2115 0 c16 5 18 3 9 -6 -15 -15 -45 3 -48
29 -2 14 0 12 7 -5 8 -17 16 -22 32 -18z m128 2 c-14 -17 -36 -20 -44 -6 -4 5
3 7 15 4 15 -4 22 0 26 18 4 13 8 18 11 11 2 -7 -2 -19 -8 -27z m992 -2 c16 5
18 3 9 -6 -15 -15 -45 3 -48 29 -2 14 0 12 7 -5 8 -17 16 -22 32 -18z m80 0
c16 5 18 3 9 -6 -15 -15 -45 3 -48 29 -2 14 0 12 7 -5 8 -17 16 -22 32 -18z
m1933 11 c0 -25 -38 -30 -55 -7 -12 15 -12 16 0 6 19 -17 50 -16 50 1 0 8 -5
17 -10 19 -6 3 -5 4 2 3 7 -2 13 -11 13 -22z m307 -11 c16 5 18 3 9 -6 -15
-15 -45 3 -48 29 -2 14 0 12 7 -5 8 -17 16 -22 32 -18z m1180 0 c16 5 18 3 9
-6 -15 -15 -45 3 -48 29 -2 14 0 12 7 -5 8 -17 16 -22 32 -18z m2628 2 c-14
-17 -36 -20 -44 -6 -4 5 3 7 15 4 15 -4 22 0 26 18 4 13 8 18 11 11 2 -7 -2
-19 -8 -27z m1290 0 c-14 -17 -36 -20 -44 -6 -4 5 3 7 15 4 15 -4 22 0 26 18
4 13 8 18 11 11 2 -7 -2 -19 -8 -27z m-11396 1 c-3 -9 -10 -13 -15 -10 -5 3
-3 11 4 19 15 16 19 13 11 -9z m239 17 c-24 -9 -13 -25 12 -19 14 4 25 3 25
-2 0 -4 -13 -9 -30 -10 -20 -2 -30 2 -30 11 0 17 10 27 24 26 6 0 5 -3 -1 -6z
m300 0 c-18 -7 -16 -21 5 -26 15 -4 15 -5 0 -6 -9 0 -20 4 -23 9 -8 13 3 30
18 29 9 0 9 -2 0 -6z m2730 0 c-21 -8 -15 -26 7 -20 11 3 22 2 24 -2 3 -4 -9
-8 -25 -9 -19 -2 -29 2 -29 11 0 17 10 27 24 26 6 0 5 -3 -1 -6z m465 0 c-10
-2 -18 -8 -18 -13 0 -5 8 -11 18 -13 15 -4 15 -5 0 -6 -9 0 -20 4 -23 9 -9 15
4 30 23 29 15 -1 15 -2 0 -6z m159 1 c-3 -3 -12 -4 -19 -1 -8 3 -5 6 6 6 11 1
17 -2 13 -5z m2880 0 c-3 -3 -12 -4 -19 -1 -8 3 -5 6 6 6 11 1 17 -2 13 -5z
m269 -32 c-4 -3 -11 0 -16 8 -15 24 -11 33 6 15 9 -9 13 -19 10 -23z m257 31
c-18 -7 -16 -21 5 -26 15 -4 15 -5 0 -6 -9 0 -20 4 -23 9 -8 13 3 30 18 29 9
0 9 -2 0 -6z m344 1 c-3 -3 -12 -4 -19 -1 -8 3 -5 6 6 6 11 1 17 -2 13 -5z
m270 0 c-3 -3 -12 -4 -19 -1 -8 3 -5 6 6 6 11 1 17 -2 13 -5z m2760 0 c-3 -3
-12 -4 -19 -1 -8 3 -5 6 6 6 11 1 17 -2 13 -5z m634 -8 c5 3 9 1 9 -5 0 -5 -4
-13 -10 -16 -5 -3 -10 -4 -10 -1 0 2 -2 10 -3 18 -2 7 -2 10 0 5 3 -4 9 -5 14
-1z m-8526 -19 c16 -5 15 -5 -4 -4 -14 1 -26 9 -28 17 -3 10 -2 11 4 4 4 -7
17 -14 28 -17z m1040 0 c16 -5 15 -5 -4 -4 -14 1 -26 9 -28 17 -3 10 -2 11 4
4 4 -7 17 -14 28 -17z m2600 -6 c-6 -5 -25 10 -25 20 0 5 6 4 14 -3 8 -7 12
-15 11 -17z m140 6 c16 -5 15 -5 -4 -4 -14 1 -26 9 -28 17 -3 10 -2 11 4 4 4
-7 17 -14 28 -17z m699 8 c3 -8 1 -15 -4 -15 -6 0 -10 7 -10 15 0 8 2 15 4 15
2 0 6 -7 10 -15z m2491 -8 c16 -5 15 -5 -4 -4 -14 1 -26 9 -28 17 -3 10 -2 11
4 4 4 -7 17 -14 28 -17z m69 7 c3 -8 2 -12 -4 -9 -6 3 -10 10 -10 16 0 14 7
11 14 -7z m776 -7 c11 -5 9 -6 -4 -4 -11 1 -21 9 -23 17 -3 10 -2 11 4 4 4 -6
15 -14 23 -17z m260 8 c-14 -17 -36 -20 -44 -6 -4 5 2 7 13 4 10 -3 22 0 25 6
4 6 10 11 13 11 3 0 0 -7 -7 -15z m-11755 -13 c-3 -3 -11 0 -18 7 -9 10 -8 11
6 5 10 -3 15 -9 12 -12z m1388 6 c-2 -5 -10 -8 -18 -8 -8 0 -16 3 -18 8 -3 4
5 7 18 7 13 0 21 -3 18 -7z m3810 0 c-2 -5 -10 -8 -18 -8 -8 0 -16 3 -18 8 -3
4 5 7 18 7 13 0 21 -3 18 -7z m1850 0 c-2 -5 -10 -8 -18 -8 -8 0 -16 3 -18 8
-3 4 5 7 18 7 13 0 21 -3 18 -7z m80 0 c-2 -5 -10 -8 -18 -8 -8 0 -16 3 -18 8
-3 4 5 7 18 7 13 0 21 -3 18 -7z m1403 -6 c-10 -2 -22 0 -28 6 -6 6 0 7 19 4
21 -5 23 -7 9 -10z m270 0 c-10 -2 -22 0 -28 6 -6 6 0 7 19 4 21 -5 23 -7 9
-10z m2007 6 c-2 -5 -10 -8 -18 -8 -8 0 -16 3 -18 8 -3 4 5 7 18 7 13 0 21 -3
18 -7z m122 2 c-3 -5 -16 -10 -28 -9 -20 1 -20 2 3 9 14 4 26 8 28 9 2 1 0 -3
-3 -9z m1235 6 c0 -3 -4 -8 -10 -11 -5 -3 -10 -1 -10 4 0 6 5 11 10 11 6 0 10
-2 10 -4z m-12243 -12 c-3 -3 -12 -4 -19 -1 -8 3 -5 6 6 6 11 1 17 -2 13 -5z
m270 0 c-3 -3 -12 -4 -19 -1 -8 3 -5 6 6 6 11 1 17 -2 13 -5z m4600 0 c-3 -3
-12 -4 -19 -1 -8 3 -5 6 6 6 11 1 17 -2 13 -5z m2160 0 c-3 -3 -12 -4 -19 -1
-8 3 -5 6 6 6 11 1 17 -2 13 -5z m720 0 c-3 -3 -12 -4 -19 -1 -8 3 -5 6 6 6
11 1 17 -2 13 -5z m3900 0 c-3 -3 -12 -4 -19 -1 -8 3 -5 6 6 6 11 1 17 -2 13
-5z m-7057 -16 c0 -5 -9 -8 -19 -8 -11 0 -22 3 -24 8 -3 4 6 7 19 7 13 0 24
-3 24 -7z m8086 -6 c-10 -2 -22 0 -28 6 -6 6 0 7 19 4 21 -5 23 -7 9 -10z
m-10954 -144 c2 -20 0 -34 -4 -32 -4 3 -7 26 -7 52 1 49 5 42 11 -20z m150 10
c-3 -61 -12 -60 -12 2 0 29 3 50 7 47 3 -4 6 -26 5 -49z m160 0 c-3 -61 -12
-60 -12 2 0 29 3 50 7 47 3 -4 6 -26 5 -49z m2177 5 c-1 -41 -2 -44 -8 -18 -7
28 -4 65 5 65 2 0 3 -21 3 -47z m253 -15 c2 -20 0 -34 -4 -32 -4 3 -7 26 -7
52 1 49 5 42 11 -20z m35 -15 c-2 -16 -4 -3 -4 27 0 30 2 43 4 28 2 -16 2 -40
0 -55z m3755 25 c-3 -61 -12 -60 -12 2 0 29 3 50 7 47 3 -4 6 -26 5 -49z m155
-25 c-2 -16 -4 -3 -4 27 0 30 2 43 4 28 2 -16 2 -40 0 -55z m2615 15 c2 -20 0
-34 -4 -32 -4 3 -7 26 -7 52 1 49 5 42 11 -20z m-9960 0 c2 -21 0 -38 -4 -38
-4 0 -8 21 -7 48 1 52 6 48 11 -10z m51 -31 c8 -6 7 -7 -3 -4 -10 2 -15 18
-16 48 -1 44 -1 44 3 4 3 -22 10 -44 16 -48z m500 0 c8 -6 7 -7 -3 -4 -10 2
-15 18 -16 48 -1 44 -1 44 3 4 3 -22 10 -44 16 -48z m5680 0 c8 -6 7 -7 -3 -4
-10 2 -15 18 -16 48 -1 44 -1 44 3 4 3 -22 10 -44 16 -48z m4244 61 c-3 -8 -6
-5 -6 6 -1 11 2 17 5 13 3 -3 4 -12 1 -19z m-322 2 c3 -5 1 -10 -4 -10 -6 0
-11 5 -11 10 0 6 2 10 4 10 3 0 8 -4 11 -10z m-11245 -4 c0 -2 -7 -9 -15 -16
-13 -11 -14 -10 -9 4 5 14 24 23 24 12z m88 -3 c13 10 14 9 4 -9 -8 -16 -8
-24 1 -34 10 -12 9 -12 -4 -2 -9 6 -20 8 -24 4 -5 -4 -5 -1 -1 6 4 7 2 21 -5
30 -11 14 -11 15 1 5 11 -10 17 -10 28 0z m44 -20 c-3 -16 -7 -22 -10 -15 -4
13 4 42 11 42 2 0 2 -12 -1 -27z m46 2 c-3 -3 -9 2 -12 12 -6 14 -5 15 5 6 7
-7 10 -15 7 -18z m29 -27 c-2 -13 -4 -5 -4 17 -1 22 1 32 4 23 2 -10 2 -28 0
-40z m273 42 c0 -5 -2 -10 -4 -10 -3 0 -8 5 -11 10 -3 6 -1 10 4 10 6 0 11 -4
11 -10z m220 0 c0 -5 -2 -10 -4 -10 -3 0 -8 5 -11 10 -3 6 -1 10 4 10 6 0 11
-4 11 -10z m80 0 c0 -5 -2 -10 -4 -10 -3 0 -8 5 -11 10 -3 6 -1 10 4 10 6 0
11 -4 11 -10z m118 -36 c-3 -27 -4 -26 -9 8 -3 22 -1 34 4 29 5 -5 7 -21 5
-37z m34 19 c-3 -16 -7 -22 -10 -15 -4 13 4 42 11 42 2 0 2 -12 -1 -27z m46 2
c-3 -3 -9 2 -12 12 -6 14 -5 15 5 6 7 -7 10 -15 7 -18z m212 21 c0 -3 -4 -8
-10 -11 -5 -3 -10 -1 -10 4 0 6 5 11 10 11 6 0 10 -2 10 -4z m30 -11 c0 -8 -2
-15 -4 -15 -2 0 -6 7 -10 15 -3 8 -1 15 4 15 6 0 10 -7 10 -15z m177 -37 c-2
-13 -4 -5 -4 17 -1 22 1 32 4 23 2 -10 2 -28 0 -40z m158 42 c-3 -6 6 -15 20
-20 15 -6 25 -16 22 -23 -5 -16 -36 -22 -49 -9 -6 6 0 8 16 5 15 -3 26 -1 26
6 0 6 -6 11 -14 11 -17 0 -38 24 -29 33 10 10 15 8 8 -3z m123 -15 c-3 -3 -9
2 -12 12 -6 14 -5 15 5 6 7 -7 10 -15 7 -18z m270 -6 c-3 -8 -7 -3 -11 10 -4
17 -3 21 5 13 5 -5 8 -16 6 -23z m160 -10 c-2 -15 -10 -25 -23 -26 -17 -2 -18
-1 -2 3 15 5 18 13 15 35 -3 18 -1 26 5 20 5 -5 7 -19 5 -32z m29 -11 c-2 -13
-4 -5 -4 17 -1 22 1 32 4 23 2 -10 2 -28 0 -40z m87 37 c-4 -8 -8 -15 -10 -15
-2 0 -4 7 -4 15 0 8 4 15 10 15 5 0 7 -7 4 -15z m1301 5 c3 -6 -1 -7 -9 -4
-18 7 -21 14 -7 14 6 0 13 -4 16 -10z m45 6 c0 -3 -4 -8 -10 -11 -5 -3 -10 -1
-10 4 0 6 5 11 10 11 6 0 10 -2 10 -4z m30 -6 c0 -5 -2 -10 -4 -10 -3 0 -8 5
-11 10 -3 6 -1 10 4 10 6 0 11 -4 11 -10z m80 0 c0 -5 -2 -10 -4 -10 -3 0 -8
5 -11 10 -3 6 -1 10 4 10 6 0 11 -4 11 -10z m142 -17 c-3 -16 -7 -22 -10 -15
-4 13 4 42 11 42 2 0 2 -12 -1 -27z m46 2 c-3 -3 -9 2 -12 12 -6 14 -5 15 5 6
7 -7 10 -15 7 -18z m36 10 c-4 -8 -8 -15 -10 -15 -2 0 -4 7 -4 15 0 8 4 15 10
15 5 0 7 -7 4 -15z m178 -24 c2 -17 1 -28 -3 -26 -4 3 -9 18 -11 34 -2 17 -1
28 3 26 4 -3 9 -18 11 -34z m76 -7 c-3 -27 -4 -26 -9 8 -3 22 -1 34 4 29 5 -5
7 -21 5 -37z m34 17 c-2 -19 1 -31 10 -34 9 -3 9 -4 -2 -3 -16 1 -25 29 -16
52 9 23 13 16 8 -15z m122 14 c-4 -8 -8 -15 -10 -15 -2 0 -4 7 -4 15 0 8 4 15
10 15 5 0 7 -7 4 -15z m143 -37 c-2 -13 -4 -5 -4 17 -1 22 1 32 4 23 2 -10 2
-28 0 -40z m153 48 c0 -3 -4 -8 -10 -11 -5 -3 -10 -1 -10 4 0 6 5 11 10 11 6
0 10 -2 10 -4z m30 -6 c0 -5 -2 -10 -4 -10 -3 0 -8 5 -11 10 -3 6 -1 10 4 10
6 0 11 -4 11 -10z m42 -19 c-2 -19 1 -31 10 -34 9 -3 9 -4 -2 -3 -16 1 -25 29
-16 52 9 23 13 16 8 -15z m46 4 c-3 -3 -9 2 -12 12 -6 14 -5 15 5 6 7 -7 10
-15 7 -18z m112 21 c0 -3 -4 -8 -10 -11 -5 -3 -10 -1 -10 4 0 6 5 11 10 11 6
0 10 -2 10 -4z m102 -26 c-4 -25 -1 -30 16 -30 11 0 23 7 25 15 4 11 4 10 3
-2 -2 -25 -49 -24 -54 0 -4 17 3 47 11 47 2 0 2 -13 -1 -30z m83 3 c0 -23 4
-28 22 -27 12 0 19 -4 16 -9 -3 -5 -14 -7 -24 -4 -11 3 -20 -1 -22 -12 -3 -9
-5 5 -6 32 0 26 3 47 7 47 4 0 8 -12 7 -27z m135 21 c0 -8 -19 -13 -24 -6 -3
5 1 9 9 9 8 0 15 -2 15 -3z m30 -29 c0 -19 -2 -35 -4 -35 -2 0 -6 16 -8 35 -2
19 0 35 4 35 4 0 8 -16 8 -35z m32 8 c-3 -16 -7 -22 -10 -15 -4 13 4 42 11 42
2 0 2 -12 -1 -27z m46 2 c-3 -3 -9 2 -12 12 -6 14 -5 15 5 6 7 -7 10 -15 7
-18z m29 -27 c-2 -13 -4 -5 -4 17 -1 22 1 32 4 23 2 -10 2 -28 0 -40z m51 6
c-3 -27 -4 -26 -9 8 -3 22 -1 34 4 29 5 -5 7 -21 5 -37z m1724 7 c2 -17 1 -28
-3 -26 -4 3 -9 18 -11 34 -2 17 -1 28 3 26 4 -3 9 -18 11 -34z m80 10 c-3 -24
0 -30 19 -34 23 -5 23 -5 -1 -4 -25 2 -37 25 -26 53 9 23 13 16 8 -15z m75
-23 c-2 -13 -4 -5 -4 17 -1 22 1 32 4 23 2 -10 2 -28 0 -40z m130 0 c-2 -13
-4 -5 -4 17 -1 22 1 32 4 23 2 -10 2 -28 0 -40z m81 6 c-3 -27 -4 -26 -9 8 -3
22 -1 34 4 29 5 -5 7 -21 5 -37z m37 17 c0 -16 -3 -27 -7 -24 -13 7 -7 53 6
53 1 0 1 -13 1 -29z m43 -13 c-2 -32 -8 -44 -22 -46 -10 -2 -22 0 -28 6 -6 6
-1 8 16 5 24 -5 25 -3 23 36 -2 23 1 41 6 41 4 0 7 -19 5 -42z m144 3 c2 -17
1 -28 -3 -26 -4 3 -9 18 -11 34 -2 17 -1 28 3 26 4 -3 9 -18 11 -34z m78 29
c0 -5 -2 -10 -4 -10 -3 0 -8 5 -11 10 -3 6 -1 10 4 10 6 0 11 -4 11 -10z m80
0 c0 -5 -2 -10 -4 -10 -3 0 -8 5 -11 10 -3 6 -1 10 4 10 6 0 11 -4 11 -10z
m118 -36 c-3 -27 -4 -26 -9 8 -3 22 -1 34 4 29 5 -5 7 -21 5 -37z m35 31 c-3
-9 -8 -14 -10 -11 -3 3 -2 9 2 15 9 16 15 13 8 -4z m93 -48 c9 -3 8 -4 -3 -3
-13 1 -19 11 -20 34 -3 31 -3 31 3 3 3 -17 12 -32 20 -34z m31 11 c-2 -13 -4
-5 -4 17 -1 22 1 32 4 23 2 -10 2 -28 0 -40z m37 37 c-4 -8 -8 -15 -10 -15 -2
0 -4 7 -4 15 0 8 4 15 10 15 5 0 7 -7 4 -15z m68 -12 c-3 -16 -7 -22 -10 -15
-4 13 4 42 11 42 2 0 2 -12 -1 -27z m46 2 c-3 -3 -9 2 -12 12 -6 14 -5 15 5 6
7 -7 10 -15 7 -18z m115 10 c-3 -9 -8 -14 -10 -11 -3 3 -2 9 2 15 9 16 15 13
8 -4z m45 -26 c-2 -18 -9 -24 -27 -24 -13 0 -25 6 -27 13 -1 7 0 8 3 2 2 -5
14 -10 25 -10 17 0 20 5 16 30 -3 19 -1 27 5 21 5 -5 7 -19 5 -32z m112 31 c0
-5 -2 -10 -4 -10 -3 0 -8 5 -11 10 -3 6 -1 10 4 10 6 0 11 -4 11 -10z m118
-36 c-3 -27 -4 -26 -9 8 -3 22 -1 34 4 29 5 -5 7 -21 5 -37z m109 -6 c-2 -13
-4 -5 -4 17 -1 22 1 32 4 23 2 -10 2 -28 0 -40z m55 17 c-2 -19 -6 -35 -8 -35
-2 0 -4 16 -4 35 0 19 4 35 8 35 4 0 6 -16 4 -35z m35 -17 c-2 -13 -4 -5 -4
17 -1 22 1 32 4 23 2 -10 2 -28 0 -40z m93 48 c0 -3 -4 -8 -10 -11 -5 -3 -10
-1 -10 4 0 6 5 11 10 11 6 0 10 -2 10 -4z m67 -28 c-3 -7 -5 -2 -5 12 0 14 2
19 5 13 2 -7 2 -19 0 -25z m1525 -3 c-2 -19 -6 -35 -8 -35 -2 0 -4 16 -4 35 0
19 4 35 8 35 4 0 6 -16 4 -35z m88 31 c0 -3 -4 -8 -10 -11 -5 -3 -10 -1 -10 4
0 6 5 11 10 11 6 0 10 -2 10 -4z m190 0 c0 -3 -4 -8 -10 -11 -5 -3 -10 -1 -10
4 0 6 5 11 10 11 6 0 10 -2 10 -4z m222 -35 c2 -17 1 -28 -3 -26 -4 3 -9 18
-11 34 -2 17 -1 28 3 26 4 -3 9 -18 11 -34z m135 -13 c-2 -13 -4 -5 -4 17 -1
22 1 32 4 23 2 -10 2 -28 0 -40z m51 6 c-3 -27 -4 -26 -9 8 -3 22 -1 34 4 29
5 -5 7 -21 5 -37z m182 42 c0 -2 -7 -6 -15 -10 -8 -3 -15 -1 -15 4 0 6 7 10
15 10 8 0 15 -2 15 -4z m110 0 c0 -3 -4 -8 -10 -11 -5 -3 -10 -1 -10 4 0 6 5
11 10 11 6 0 10 -2 10 -4z m160 0 c0 -3 -4 -8 -10 -11 -5 -3 -10 -1 -10 4 0 6
5 11 10 11 6 0 10 -2 10 -4z m-11255 -47 c0 -8 -10 -15 -23 -15 -18 -1 -19 -1
-2 3 23 5 27 23 6 23 -8 0 -18 4 -21 10 -4 6 2 7 17 1 13 -4 23 -15 23 -22z
m357 -6 c16 5 18 3 9 -6 -15 -15 -45 3 -48 29 -2 14 0 12 7 -5 8 -17 16 -22
32 -18z m298 14 c0 -18 -6 -23 -31 -25 -24 -2 -30 1 -27 14 2 10 9 19 16 20 7
1 8 0 2 -3 -16 -7 -12 -23 6 -23 9 0 18 9 21 20 7 27 13 25 13 -3z m2602 -14
c16 5 18 3 9 -6 -15 -15 -45 3 -48 29 -2 14 0 12 7 -5 8 -17 16 -22 32 -18z
m752 21 c3 -9 2 -12 -5 -9 -5 4 -16 1 -24 -5 -20 -17 -19 -5 1 14 19 20 20 20
28 0z m3388 -21 c16 5 18 3 9 -6 -15 -15 -45 3 -48 29 -2 14 0 12 7 -5 8 -17
16 -22 32 -18z m700 0 c16 5 18 3 9 -6 -15 -15 -45 3 -48 29 -2 14 0 12 7 -5
8 -17 16 -22 32 -18z m216 14 c-2 -19 -8 -24 -28 -23 -26 1 -36 27 -12 32 7 1
8 0 2 -3 -16 -7 -12 -23 6 -23 9 0 18 9 21 20 7 27 13 25 11 -3z m1770 0 c-2
-19 -8 -24 -28 -23 -26 1 -36 27 -12 32 7 1 8 0 2 -3 -16 -7 -12 -23 6 -23 9
0 18 9 21 20 7 27 13 25 11 -3z m270 -5 c5 -16 -27 -27 -40 -14 -8 8 -5 9 11
5 12 -3 21 -1 21 6 0 6 -6 11 -14 11 -8 0 -18 4 -21 10 -4 6 2 7 16 1 13 -4
25 -13 27 -19z m72 -7 c-14 -17 -36 -20 -44 -6 -4 5 3 7 15 4 15 -4 22 0 26
18 4 13 8 18 11 11 2 -7 -2 -19 -8 -27z m860 0 c-14 -17 -36 -20 -44 -6 -4 5
3 7 15 4 15 -4 22 0 26 18 4 13 8 18 11 11 2 -7 -2 -19 -8 -27z m155 4 c0 -8
-10 -15 -23 -15 -18 -1 -19 -1 -2 3 23 5 27 23 6 23 -8 0 -18 4 -21 10 -4 6 2
7 17 1 13 -4 23 -15 23 -22z m-11245 17 c0 -2 -7 -7 -16 -10 -8 -3 -12 -2 -9
4 6 10 25 14 25 6z m1104 -20 c-6 -16 -24 -13 -24 5 0 6 5 7 10 4 6 -3 10 -1
10 6 0 7 2 10 5 7 3 -3 3 -13 -1 -22z m289 17 c-21 -8 -15 -26 7 -20 11 3 22
2 24 -2 3 -4 -6 -8 -19 -9 -26 -2 -40 12 -30 28 3 6 12 10 18 9 9 0 9 -2 0 -6z
m262 -3 c3 -6 -1 -7 -9 -4 -18 7 -21 14 -7 14 6 0 13 -4 16 -10z m1680 0 c3
-6 -1 -7 -9 -4 -18 7 -21 14 -7 14 6 0 13 -4 16 -10z m108 3 c-18 -7 -16 -21
5 -26 15 -4 15 -5 0 -6 -9 0 -20 4 -23 9 -8 13 3 30 18 29 9 0 9 -2 0 -6z
m2990 0 c-18 -7 -16 -21 5 -26 15 -4 15 -5 0 -6 -9 0 -20 4 -23 9 -8 13 3 30
18 29 9 0 9 -2 0 -6z m604 1 c-3 -3 -12 -4 -19 -1 -8 3 -5 6 6 6 11 1 17 -2
13 -5z m3346 -1 c-18 -7 -16 -21 5 -26 15 -4 15 -5 0 -6 -9 0 -20 4 -23 9 -8
13 3 30 18 29 9 0 9 -2 0 -6z m440 0 c-24 -9 -13 -25 12 -19 14 4 25 3 25 -2
0 -11 -48 -13 -55 -2 -8 13 3 30 18 29 9 0 9 -2 0 -6z m-7918 -26 c16 -5 15
-5 -4 -4 -14 1 -26 9 -28 17 -3 10 -2 11 4 4 4 -7 17 -14 28 -17z m3472 7 c14
6 15 4 7 -4 -14 -14 -54 -4 -54 12 0 6 6 6 15 -2 8 -7 23 -9 32 -6z m1036 -5
c-6 -6 -19 -9 -29 -6 -16 4 -15 5 4 6 12 0 22 6 22 13 0 6 3 8 7 5 4 -4 2 -12
-4 -18z m314 -1 c-3 -8 -6 -5 -6 6 -1 11 2 17 5 13 3 -3 4 -12 1 -19z m-8304
0 c-2 -5 -10 -8 -18 -8 -8 0 -16 3 -18 8 -3 4 5 7 18 7 13 0 21 -3 18 -7z
m152 2 c-3 -5 -16 -10 -28 -9 -20 1 -20 2 3 9 14 4 26 8 28 9 2 1 0 -3 -3 -9z
m118 -2 c-2 -5 -10 -8 -18 -8 -8 0 -16 3 -18 8 -3 4 5 7 18 7 13 0 21 -3 18
-7z m180 0 c-2 -5 -10 -8 -18 -8 -8 0 -16 3 -18 8 -3 4 5 7 18 7 13 0 21 -3
18 -7z m151 4 c2 -4 -10 -8 -27 -9 -30 -1 -30 -1 -7 7 14 4 26 8 27 9 1 1 4
-3 7 -7z m351 -2 c-3 -5 -16 -10 -28 -9 -20 1 -20 2 3 9 14 4 26 8 28 9 2 1 0
-3 -3 -9z m305 0 c0 -5 -4 -10 -10 -10 -5 0 -10 5 -10 10 0 6 5 10 10 10 6 0
10 -4 10 -10z m233 -2 c-2 -5 -10 -8 -18 -8 -8 0 -16 3 -18 8 -3 4 5 7 18 7
13 0 21 -3 18 -7z m310 0 c-2 -5 -10 -8 -18 -8 -8 0 -16 3 -18 8 -3 4 5 7 18
7 13 0 21 -3 18 -7z m418 -6 c-7 -2 -18 1 -23 6 -8 8 -4 9 13 5 13 -4 18 -8
10 -11z m1542 6 c-2 -5 -10 -8 -18 -8 -8 0 -16 3 -18 8 -3 4 5 7 18 7 13 0 21
-3 18 -7z m82 2 c-3 -5 -16 -10 -28 -9 -20 1 -20 2 3 9 14 4 26 8 28 9 2 1 0
-3 -3 -9z m61 -8 c-10 -2 -22 0 -28 6 -6 6 0 7 19 4 21 -5 23 -7 9 -10z m417
6 c-2 -5 -10 -8 -18 -8 -8 0 -16 3 -18 8 -3 4 5 7 18 7 13 0 21 -3 18 -7z
m290 0 c-2 -5 -10 -8 -18 -8 -8 0 -16 3 -18 8 -3 4 5 7 18 7 13 0 21 -3 18 -7z
m147 2 c0 -5 -2 -10 -4 -10 -3 0 -8 5 -11 10 -3 6 -1 10 4 10 6 0 11 -4 11
-10z m83 -2 c-2 -5 -10 -8 -18 -8 -8 0 -16 3 -18 8 -3 4 5 7 18 7 13 0 21 -3
18 -7z m402 2 c-3 -5 -16 -10 -28 -9 -20 1 -20 2 3 9 14 4 26 8 28 9 2 1 0 -3
-3 -9z m2366 -8 c-7 -2 -18 1 -23 6 -8 8 -4 9 13 5 13 -4 18 -8 10 -11z m520
0 c-7 -2 -18 1 -23 6 -8 8 -4 9 13 5 13 -4 18 -8 10 -11z m94 8 c-3 -5 -16
-10 -28 -9 -20 1 -20 2 3 9 14 4 26 8 28 9 2 1 0 -3 -3 -9z m708 -2 c-2 -5
-10 -8 -18 -8 -8 0 -16 3 -18 8 -3 4 5 7 18 7 13 0 21 -3 18 -7z m147 2 c0 -5
-2 -10 -4 -10 -3 0 -8 5 -11 10 -3 6 -1 10 4 10 6 0 11 -4 11 -10z m1533 -2
c-2 -5 -10 -8 -18 -8 -8 0 -16 3 -18 8 -3 4 5 7 18 7 13 0 21 -3 18 -7z m270
0 c-2 -5 -10 -8 -18 -8 -8 0 -16 3 -18 8 -3 4 5 7 18 7 13 0 21 -3 18 -7z
m420 0 c-2 -5 -10 -8 -18 -8 -8 0 -16 3 -18 8 -3 4 5 7 18 7 13 0 21 -3 18 -7z
m200 0 c-2 -5 -10 -8 -18 -8 -8 0 -16 3 -18 8 -3 4 5 7 18 7 13 0 21 -3 18 -7z
m62 -6 c-3 -3 -11 0 -18 7 -9 10 -8 11 6 5 10 -3 15 -9 12 -12z"/>
<path d="M12903 8748 c-46 -60 9 -138 75 -106 35 18 40 38 9 38 -32 0 -57 24
-57 56 0 26 -12 31 -27 12z"/>
<path d="M1265 8717 c-8 -19 -2 -31 13 -26 5 2 6 13 2 24 -7 19 -8 19 -15 2z"/>
<path d="M1384 8705 c-9 -22 0 -50 16 -50 21 0 26 51 5 59 -9 3 -18 0 -21 -9z"/>
<path d="M2077 8711 c-3 -14 0 -21 9 -21 16 0 18 9 5 28 -6 10 -10 9 -14 -7z"/>
<path d="M1135 8710 c-3 -5 1 -10 10 -10 9 0 13 5 10 10 -3 6 -8 10 -10 10 -2
0 -7 -4 -10 -10z"/>
<path d="M1785 8710 c-3 -5 3 -10 15 -10 12 0 18 5 15 10 -3 6 -10 10 -15 10
-5 0 -12 -4 -15 -10z"/>
<path d="M13444 8699 c-10 -17 13 -36 27 -22 12 12 4 33 -11 33 -5 0 -12 -5
-16 -11z"/>
<path d="M14050 8690 c0 -11 7 -20 15 -20 8 0 15 9 15 20 0 11 -7 20 -15 20
-8 0 -15 -9 -15 -20z"/>
<path d="M14356 8701 c-7 -11 3 -41 14 -41 11 0 21 30 14 41 -3 5 -9 9 -14 9
-5 0 -11 -4 -14 -9z"/>
<path d="M8282 7881 c-17 -47 -15 -51 13 -51 28 0 30 11 11 55 l-12 30 -12
-34z"/>
<path d="M8496 7865 c-10 -27 -7 -70 6 -83 34 -34 64 1 56 64 -2 23 -9 30 -29
32 -17 2 -29 -3 -33 -13z"/>
<path d="M9786 7876 c-20 -49 -21 -46 14 -46 33 0 34 1 16 50 l-13 35 -17 -39z"/>
<path d="M5536 7865 c-4 -12 3 -15 29 -15 24 0 35 5 35 15 0 10 -10 15 -29 15
-16 0 -31 -6 -35 -15z"/>
<path d="M6076 7864 c-11 -28 -6 -71 9 -84 36 -30 79 26 56 76 -12 28 -55 33
-65 8z"/>
<path d="M6627 7879 c-28 -16 -20 -29 18 -29 38 0 46 13 17 29 -11 6 -24 6
-35 0z"/>
<path d="M7072 7868 c-27 -27 -6 -98 28 -98 22 0 40 28 40 62 0 28 -17 48 -40
48 -9 0 -21 -5 -28 -12z"/>
<path d="M8035 7873 c-21 -21 -19 -23 20 -23 23 0 35 5 35 14 0 20 -38 27 -55
9z"/>
<path d="M9257 7879 c-28 -16 -20 -29 18 -29 38 0 46 13 17 29 -11 6 -24 6
-35 0z"/>
<path d="M5797 7364 c-12 -12 -8 -51 7 -63 24 -20 47 -2 44 33 -2 22 -9 32
-23 34 -12 2 -24 0 -28 -4z"/>
<path d="M6067 7349 c-7 -26 8 -59 27 -59 21 0 38 26 34 52 -4 33 -53 38 -61
7z"/>
<path d="M7462 7371 c-10 -29 -10 -31 14 -31 22 0 24 3 19 23 -12 37 -22 40
-33 8z"/>
<path d="M4507 7356 c-5 -13 1 -16 29 -16 24 0 34 4 32 13 -7 19 -54 21 -61 3z"/>
<path d="M4757 7364 c-13 -13 -7 -65 8 -70 23 -9 46 16 43 45 -3 26 -35 41
-51 25z"/>
<path d="M4867 7364 c-15 -15 -6 -24 24 -24 20 0 29 4 27 13 -5 14 -40 21 -51
11z"/>
<path d="M5147 7363 c-4 -3 -7 -19 -7 -34 0 -24 15 -39 41 -39 16 0 28 43 17
63 -9 17 -39 23 -51 10z"/>
<path d="M5370 7315 c-10 -12 -9 -16 4 -21 22 -8 46 2 46 21 0 19 -34 20 -50
0z"/>
<path d="M5687 7364 c-15 -15 -6 -24 24 -24 20 0 29 4 27 13 -5 14 -40 21 -51
11z"/>
<path d="M5967 7323 c-14 -13 -7 -33 11 -33 19 0 42 18 42 32 0 10 -44 11 -53
1z"/>
<path d="M6447 7363 c-15 -15 -5 -23 28 -23 26 0 33 3 29 15 -6 15 -45 21 -57
8z"/>
<path d="M6745 7351 c-7 -24 10 -61 29 -61 21 0 38 26 34 52 -4 31 -53 38 -63
9z"/>
<path d="M7084 7345 c-5 -18 -1 -32 10 -43 23 -23 51 -4 51 34 0 24 -5 30 -27
32 -22 3 -29 -2 -34 -23z"/>
<path d="M7674 7319 c-3 -6 -1 -16 5 -22 13 -13 42 0 49 21 5 15 -44 16 -54 1z"/>
<path d="M8217 7323 c-14 -13 -7 -33 11 -33 19 0 42 18 42 32 0 10 -44 11 -53
1z"/>
<path d="M8554 7345 c-5 -18 -1 -32 10 -43 23 -23 51 -4 51 34 0 24 -5 30 -27
32 -22 3 -29 -2 -34 -23z"/>
<path d="M8940 7315 c-10 -12 -9 -16 4 -21 22 -8 46 2 46 21 0 19 -34 20 -50
0z"/>
<path d="M9167 7363 c-20 -20 1 -73 30 -73 18 0 35 37 28 60 -6 19 -44 28 -58
13z"/>
<path d="M9550 7320 c-12 -7 -12 -12 -2 -22 14 -14 42 -2 50 20 4 14 -27 16
-48 2z"/>
<path d="M9767 7364 c-24 -25 7 -82 39 -70 24 9 15 70 -11 74 -12 2 -24 0 -28
-4z"/>
<path d="M9877 7364 c-15 -15 -6 -24 24 -24 20 0 29 4 27 13 -5 14 -40 21 -51
11z"/>
<path d="M10314 7345 c-5 -18 -1 -32 10 -43 23 -23 51 -4 51 34 0 24 -5 30
-27 32 -22 3 -29 -2 -34 -23z"/>
<path d="M10717 7356 c-5 -13 1 -16 29 -16 24 0 34 4 32 13 -7 19 -54 21 -61
3z"/>
<path d="M2020 6345 c0 -8 5 -15 10 -15 6 0 10 7 10 15 0 8 -4 15 -10 15 -5 0
-10 -7 -10 -15z"/>
<path d="M2134 6346 c-9 -23 0 -51 16 -51 10 0 15 10 15 29 0 32 -21 47 -31
22z"/>
<path d="M4860 6371 c0 -16 6 -21 26 -21 33 0 30 33 -4 38 -17 3 -22 -2 -22
-17z"/>
<path d="M5168 6312 c-10 -2 -18 -8 -18 -13 0 -13 27 -11 35 2 9 13 4 16 -17
11z"/>
<path d="M6065 6357 c-8 -19 -2 -31 13 -26 5 2 6 13 2 24 -7 19 -8 19 -15 2z"/>
<path d="M6174 6346 c-9 -23 0 -51 16 -51 10 0 15 10 15 29 0 32 -21 47 -31
22z"/>
<path d="M8970 6300 c0 -5 7 -10 15 -10 8 0 15 5 15 10 0 6 -7 10 -15 10 -8 0
-15 -4 -15 -10z"/>
<path d="M9200 6345 c0 -8 5 -15 10 -15 6 0 10 7 10 15 0 8 -4 15 -10 15 -5 0
-10 -7 -10 -15z"/>
<path d="M9314 6346 c-9 -23 0 -51 16 -51 10 0 15 10 15 29 0 32 -21 47 -31
22z"/>
<path d="M12250 6300 c0 -5 7 -10 15 -10 8 0 15 5 15 10 0 6 -7 10 -15 10 -8
0 -15 -4 -15 -10z"/>
<path d="M12880 6325 c0 -27 4 -35 18 -35 13 0 17 8 17 35 0 27 -4 35 -17 35
-14 0 -18 -8 -18 -35z"/>
<path d="M1480 6300 c0 -5 7 -10 15 -10 8 0 15 5 15 10 0 6 -7 10 -15 10 -8 0
-15 -4 -15 -10z"/>
<path d="M1665 6350 c-3 -5 3 -10 15 -10 12 0 18 5 15 10 -3 6 -10 10 -15 10
-5 0 -12 -4 -15 -10z"/>
<path d="M1775 6350 c-3 -5 3 -10 15 -10 12 0 18 5 15 10 -3 6 -10 10 -15 10
-5 0 -12 -4 -15 -10z"/>
<path d="M2412 6348 c-14 -14 -15 -28 -3 -47 7 -12 13 -12 40 0 34 15 42 39
13 39 -10 0 -22 5 -28 10 -7 7 -14 6 -22 -2z"/>
<path d="M2520 6350 c-12 -8 -10 -10 8 -10 13 0 20 4 17 10 -7 12 -6 12 -25 0z"/>
<path d="M4995 6350 c-3 -5 1 -10 10 -10 9 0 13 5 10 10 -3 6 -8 10 -10 10 -2
0 -7 -4 -10 -10z"/>
<path d="M5391 6346 c-16 -20 -10 -50 11 -54 23 -4 34 36 16 55 -13 12 -16 12
-27 -1z"/>
<path d="M5891 6346 c-16 -20 -10 -50 11 -54 23 -4 34 36 16 55 -13 12 -16 12
-27 -1z"/>
<path d="M6452 6348 c-14 -14 -15 -28 -3 -47 7 -12 13 -12 40 0 34 15 42 39
13 39 -10 0 -23 5 -28 10 -7 7 -14 6 -22 -2z"/>
<path d="M6565 6350 c-3 -5 1 -10 10 -10 9 0 13 5 10 10 -3 6 -8 10 -10 10 -2
0 -7 -4 -10 -10z"/>
<path d="M8608 6312 c-10 -2 -18 -8 -18 -13 0 -13 27 -11 35 2 9 13 4 16 -17
11z"/>
<path d="M9592 6348 c-7 -7 -12 -20 -12 -30 0 -21 32 -38 38 -20 2 7 12 12 23
12 10 0 19 7 19 15 0 8 -8 15 -18 15 -10 0 -22 5 -28 10 -7 7 -14 6 -22 -2z"/>
<path d="M9700 6350 c-12 -8 -10 -10 8 -10 13 0 20 4 17 10 -7 12 -6 12 -25 0z"/>
<path d="M11960 6350 c-12 -8 -10 -10 8 -10 13 0 20 4 17 10 -7 12 -6 12 -25
0z"/>
<path d="M12600 6350 c-12 -8 -10 -10 8 -10 13 0 20 4 17 10 -7 12 -6 12 -25
0z"/>
<path d="M12718 6312 c-10 -2 -18 -8 -18 -13 0 -13 27 -11 35 2 9 13 4 16 -17
11z"/>
<path d="M4496 6153 c-15 -16 -3 -52 27 -81 l33 -32 38 39 c55 56 47 75 -31
78 -33 1 -64 -1 -67 -4z"/>
<path d="M1048 6053 c6 -2 18 -2 25 0 6 3 1 5 -13 5 -14 0 -19 -2 -12 -5z"/>
<path d="M1000 5989 c0 -52 24 -48 28 4 2 28 -1 37 -12 37 -12 0 -16 -11 -16
-41z"/>
<path d="M1040 5990 c0 -33 3 -40 20 -40 17 0 20 7 20 40 0 33 -3 40 -20 40
-17 0 -20 -7 -20 -40z"/>
<path d="M1092 5993 c4 -52 28 -56 28 -4 0 30 -4 41 -16 41 -11 0 -14 -9 -12
-37z"/>
<path d="M11470 6046 c0 -8 -4 -16 -9 -18 -14 -5 -25 -58 -12 -58 6 0 11 -7
11 -15 0 -8 7 -15 15 -15 9 0 15 9 15 25 0 14 -5 25 -12 25 -9 0 -9 3 0 12 15
15 16 58 2 58 -5 0 -10 -6 -10 -14z"/>
<path d="M11510 6031 c0 -16 6 -32 13 -34 10 -4 10 -6 0 -6 -7 -1 -13 -12 -13
-26 0 -32 22 -32 37 0 12 26 7 65 -8 65 -5 0 -9 7 -9 15 0 8 -4 15 -10 15 -5
0 -10 -13 -10 -29z"/>
<path d="M7994 6015 c-4 -8 -4 -25 0 -38 7 -31 54 -30 79 1 15 18 17 26 7 37
-16 20 -79 20 -86 0z"/>
<path d="M2020 4680 c0 -5 5 -10 10 -10 6 0 10 5 10 10 0 6 -4 10 -10 10 -5 0
-10 -4 -10 -10z"/>
<path d="M2010 4606 c0 -9 7 -16 16 -16 9 0 14 5 12 12 -6 18 -28 21 -28 4z"/>
<path d="M1790 4625 c0 -24 5 -35 15 -35 10 0 15 11 15 35 0 24 -5 35 -15 35
-10 0 -15 -11 -15 -35z"/>
<path d="M4981 4646 c-16 -20 -10 -50 11 -54 23 -4 34 36 16 55 -13 12 -16 12
-27 -1z"/>
<path d="M9185 4650 c-3 -5 3 -10 15 -10 12 0 18 5 15 10 -3 6 -10 10 -15 10
-5 0 -12 -4 -15 -10z"/>
<path d="M12220 4600 c0 -5 7 -10 15 -10 8 0 15 5 15 10 0 6 -7 10 -15 10 -8
0 -15 -4 -15 -10z"/>
<path d="M12607 4652 c-18 -20 -18 -21 0 -48 l18 -28 3 27 c2 15 2 37 0 48
l-3 21 -18 -20z"/>
<path d="M1505 4650 c-3 -5 3 -10 15 -10 12 0 18 5 15 10 -3 6 -10 10 -15 10
-5 0 -12 -4 -15 -10z"/>
<path d="M1628 4612 c-10 -2 -18 -8 -18 -13 0 -13 27 -11 35 2 9 13 4 16 -17
11z"/>
<path d="M2535 4650 c-3 -5 3 -10 15 -10 12 0 18 5 15 10 -3 6 -10 10 -15 10
-5 0 -12 -4 -15 -10z"/>
<path d="M2640 4600 c0 -5 7 -10 15 -10 8 0 15 5 15 10 0 6 -7 10 -15 10 -8 0
-15 -4 -15 -10z"/>
<path d="M5310 4600 c0 -5 7 -10 15 -10 8 0 15 5 15 10 0 6 -7 10 -15 10 -8 0
-15 -4 -15 -10z"/>
<path d="M5551 4646 c-16 -20 -10 -50 11 -54 23 -4 34 36 16 55 -13 12 -16 12
-27 -1z"/>
<path d="M8430 4600 c0 -5 7 -10 15 -10 8 0 15 5 15 10 0 6 -7 10 -15 10 -8 0
-15 -4 -15 -10z"/>
<path d="M11957 4653 c-11 -11 -8 -51 5 -59 18 -11 39 25 27 47 -10 20 -21 24
-32 12z"/>
<path d="M1016 4454 c-8 -22 -8 -26 4 -19 14 9 13 -8 -2 -23 -7 -7 -8 -12 -2
-12 12 0 54 42 54 54 0 5 -7 3 -15 -4 -12 -10 -15 -10 -15 4 0 21 -16 21 -24
0z"/>
<path d="M1095 4375 c-16 -13 -26 -27 -22 -31 3 -4 13 -1 22 6 12 10 15 9 15
-5 0 -14 3 -15 15 -5 17 14 21 35 4 24 -8 -4 -9 0 -4 15 8 26 7 26 -30 -4z"/>
<path d="M7992 4437 c-26 -28 -31 -97 -8 -97 9 0 16 12 18 33 2 27 7 32 28 32
21 0 26 -5 28 -32 5 -49 32 -44 32 5 0 27 -7 45 -23 60 -30 28 -48 28 -75 -1z"/>
<path d="M8017 4383 c-7 -15 -2 -36 11 -40 7 -3 12 5 12 21 0 24 -14 36 -23
19z"/>
<path d="M11480 4460 c-18 -11 -4 -42 17 -38 10 2 19 10 21 19 4 19 -19 31
-38 19z"/>
<path d="M4520 4434 l-35 -15 33 -16 c28 -14 38 -14 73 -3 l41 14 -34 17 c-40
22 -35 22 -78 3z"/>
<path d="M4523 4365 c2 -5 19 -10 37 -10 18 0 35 5 37 10 2 6 -14 10 -37 10
-23 0 -39 -4 -37 -10z"/>
</g>
</svg>
